<?xml version="1.0" encoding="UTF-8"?>
<svg id="Layer_2" data-name="Layer 2" xmlns="http://www.w3.org/2000/svg" xmlns:xlink="http://www.w3.org/1999/xlink" viewBox="0 0 85.85 31.97">
  <defs>
    <style>
      .cls-1 {
        fill: none;
      }

      .cls-2 {
        fill: #fff;
      }

      .cls-3 {
        clip-path: url(#clippath);
      }
    </style>
    <clipPath id="clippath">
      <rect class="cls-1" width="85.85" height="31.97"/>
    </clipPath>
  </defs>
  <g id="Layer_1-2" data-name="Layer 1">
    <g class="cls-3">
      <path class="cls-2" d="M36.93,18.36v-8.85c0-1.35-.82-2.17-2.37-2.17-.8,0-1.57.15-2.02.32v10.69h-3.39V5.6c1.42-.57,3.14-.97,5.36-.97,3.99,0,5.83,1.65,5.83,4.54v9.19h-3.41Z"/>
      <path class="cls-2" d="M63.32,18.66c-4.34,0-6.7-2.57-6.7-6.93,0-4.14,2.17-6.93,6.28-6.93.72,0,1.49.12,1.92.27V0h3.41v17.69c-.97.52-2.86.97-4.91.97M64.82,7.62c-.27-.12-.97-.25-1.57-.25-2.12,0-3.24,1.77-3.24,4.31,0,2.72,1.15,4.31,3.24,4.31.6,0,1.3-.12,1.57-.27V7.62Z"/>
      <path class="cls-2" d="M77.29,18.66c-4.11,0-6.66-3.01-6.66-7.03s2.55-7,6.66-7,6.66,2.99,6.66,7-2.55,7.03-6.66,7.03M77.29,7.3c-2.1,0-3.42,1.62-3.42,4.31s1.32,4.29,3.42,4.29,3.42-1.59,3.42-4.29-1.32-4.31-3.42-4.31"/>
      <path class="cls-2" d="M54.49,11.42c-2.56.36-5.76.88-8.43,2.13.27,1.57,1.72,2.51,3.68,2.51,1.35,0,2.82-.42,3.76-.92l.97,2.54c-1.12.57-3.01.97-4.96.97-4.44,0-6.78-2.89-6.78-7.02s2.32-7,6.23-7,5.78,2.72,5.78,6.38c0,.19-.02.38-.26.41M48.89,7.29c-1.78.2-3.04,1.76-3.06,3.89,1.73-.68,3.92-1.31,6.17-1.55-.11-1.32-1.29-2.54-3.11-2.34"/>
      <path class="cls-2" d="M26.5,11.42c-2.56.36-5.76.88-8.43,2.13.27,1.57,1.72,2.51,3.68,2.51,1.35,0,2.82-.42,3.76-.92l.97,2.54c-1.12.57-3.01.97-4.96.97-4.44,0-6.78-2.89-6.78-7.02s2.32-7,6.23-7,5.78,2.72,5.78,6.38c0,.19-.02.38-.26.41M20.9,7.29c-1.78.2-3.04,1.76-3.06,3.89,1.73-.68,3.92-1.31,6.17-1.55-.11-1.32-1.29-2.54-3.11-2.34"/>
      <path class="cls-2" d="M5.48,18.66c-2.04,0-4.31-.18-5.48.11V1.48C1.47.76,3.36.02,5.43.02,10.01.02,12.16,2.09,12.16,4.95c0,2.07-1.37,3.42-2.82,3.81v.05c1.44.47,3.29,2.07,3.29,4.63,0,3.24-2.44,5.21-7.15,5.21M5.97,2.69c-.8,0-1.96.19-2.64.53v5.42c.46-.21,1.79-.48,2.85-.67,2.2-.4,2.63-1.78,2.63-2.68,0-1.62-.79-2.59-2.84-2.59M7.2,10.45c-1.84-.3-3.86.89-3.86.89v4.35c.5.18,1.37.3,2.12.3,2.47,0,3.71-1.07,3.71-2.94,0-1-.42-2.36-1.97-2.61"/>
      <path class="cls-2" d="M84.68,7.15c-.65,0-1.18-.52-1.18-1.18s.53-1.17,1.18-1.17,1.18.52,1.18,1.17-.53,1.18-1.18,1.18M84.68,5c-.54,0-.97.44-.97.98s.43.97.97.97.97-.44.97-.97-.43-.98-.97-.98M84.92,6.63l-.39-.58h-.03v.58h-.22v-1.3c.09-.05.22-.08.35-.08.32,0,.48.18.48.39s-.15.35-.35.38l.42.6h-.27ZM84.61,5.44s-.08,0-.11.02v.45h.08c.19,0,.3-.06.3-.25,0-.18-.15-.21-.27-.21"/>
      <path class="cls-2" d="M.89,29.78c-.27-.12-.48-.28-.63-.48-.15-.21-.24-.44-.26-.71h.76c.02.22.12.4.31.54.18.14.43.21.73.21.28,0,.5-.06.66-.18.16-.12.24-.28.24-.47s-.09-.34-.26-.43c-.17-.09-.44-.19-.79-.28-.33-.08-.59-.17-.8-.26-.21-.09-.38-.22-.53-.39-.15-.17-.22-.4-.22-.69,0-.23.07-.43.2-.62.13-.19.32-.34.57-.45.25-.11.53-.16.84-.16.49,0,.88.12,1.18.37.3.25.46.58.48,1.01h-.73c-.02-.23-.11-.41-.28-.55-.17-.14-.39-.21-.68-.21-.26,0-.47.06-.63.17-.16.11-.23.26-.23.44,0,.14.05.26.14.36.09.09.21.17.35.23.14.06.34.12.59.19.32.09.57.17.77.25.2.08.37.21.51.37.14.17.21.38.22.65,0,.24-.07.46-.2.65-.13.19-.32.34-.57.45-.24.11-.52.17-.84.17-.34,0-.64-.06-.91-.17"/>
      <path class="cls-2" d="M5.23,29.67c-.33-.19-.6-.45-.79-.8s-.28-.74-.28-1.2.1-.85.29-1.19c.2-.35.46-.61.8-.79.34-.18.71-.28,1.13-.28s.79.09,1.13.28c.34.18.6.45.8.79.2.34.29.74.29,1.2s-.1.85-.3,1.2-.47.61-.82.8c-.34.19-.72.28-1.14.28s-.79-.09-1.12-.28M7.09,29.13c.23-.12.42-.31.56-.55s.21-.55.21-.9-.07-.65-.21-.9c-.14-.25-.32-.43-.55-.55-.23-.12-.47-.18-.73-.18s-.51.06-.74.18c-.22.12-.4.3-.53.55-.13.25-.2.55-.2.9s.07.66.2.91c.13.25.31.43.53.55.22.12.46.18.72.18s.51-.06.74-.18"/>
      <rect class="cls-2" x="9.57" y="23.94" width=".73" height="5.94"/>
      <path class="cls-2" d="M15.44,25.48v4.4h-.73v-.65c-.14.23-.33.4-.58.53-.25.13-.52.19-.82.19-.34,0-.65-.07-.92-.21s-.49-.35-.65-.64c-.16-.28-.24-.63-.24-1.04v-2.58h.72v2.48c0,.43.11.77.33,1,.22.23.52.35.9.35s.7-.12.92-.36c.22-.24.34-.59.34-1.05v-2.42h.73Z"/>
      <path class="cls-2" d="M19.35,29.11c.21-.15.36-.36.44-.64h.79c-.11.42-.32.76-.63,1.02-.31.26-.71.42-1.18.45v.4c.32,0,.57.06.76.2.19.14.28.34.28.59s-.09.45-.27.6c-.18.15-.42.22-.71.22h-.92v-.47h.78c.18,0,.31-.03.39-.08.08-.05.12-.15.12-.27s-.04-.21-.12-.26c-.08-.05-.21-.08-.39-.08h-.4v-.86c-.37-.04-.7-.15-.98-.35-.28-.2-.5-.46-.66-.79-.16-.33-.24-.71-.24-1.13,0-.45.09-.85.27-1.19.18-.34.43-.6.76-.79.32-.19.69-.28,1.11-.28.54,0,.99.13,1.34.39.35.26.58.63.69,1.09h-.79c-.07-.27-.22-.48-.44-.63-.22-.16-.49-.23-.81-.23-.42,0-.75.14-1.01.43-.26.29-.39.69-.39,1.22s.13.94.39,1.23c.26.29.59.43,1.01.43.32,0,.59-.08.8-.23"/>
      <path class="cls-2" d="M22.35,29.67c-.33-.19-.6-.45-.79-.8s-.29-.74-.29-1.2.1-.85.29-1.19c.19-.35.46-.61.8-.79.34-.18.71-.28,1.13-.28s.79.09,1.13.28c.34.18.6.45.8.79.2.34.29.74.29,1.2s-.1.85-.3,1.2c-.2.35-.47.61-.81.8-.34.19-.72.28-1.14.28s-.79-.09-1.12-.28M24.21,29.13c.23-.12.42-.31.56-.55.14-.25.21-.55.21-.9s-.07-.65-.21-.9c-.14-.25-.32-.43-.55-.55-.22-.12-.47-.18-.73-.18s-.51.06-.73.18c-.22.12-.4.3-.53.55-.13.25-.2.55-.2.9s.07.66.2.91.31.43.52.55c.22.12.46.18.72.18s.51-.06.74-.18M22.6,24.33c.14-.15.32-.22.53-.22.1,0,.19.02.26.05.07.03.16.08.26.15.08.05.14.1.2.12.06.03.12.04.19.04.09,0,.17-.03.23-.09.07-.06.1-.14.12-.26h.42c-.03.27-.12.47-.26.62-.14.15-.32.22-.54.22-.1,0-.19-.02-.27-.05-.08-.04-.16-.09-.26-.16-.09-.05-.15-.09-.2-.12-.05-.03-.11-.04-.18-.04-.09,0-.17.03-.23.09-.06.06-.1.15-.12.27h-.43c.04-.27.13-.48.27-.63"/>
      <path class="cls-2" d="M30.68,27.96h-3.52c.03.43.18.77.45,1.02.27.24.6.36.98.36.32,0,.58-.07.79-.22.21-.15.36-.34.44-.59h.79c-.12.42-.35.77-.71,1.03-.35.26-.79.4-1.32.4-.42,0-.79-.09-1.12-.28-.33-.19-.59-.45-.77-.8-.19-.35-.28-.75-.28-1.2s.09-.85.27-1.2c.18-.34.44-.61.77-.79.33-.18.71-.28,1.14-.28s.79.09,1.11.27.57.43.74.75c.17.32.26.68.26,1.08,0,.14,0,.29-.02.44M29.76,26.64c-.12-.2-.29-.35-.5-.46-.21-.1-.45-.16-.7-.16-.37,0-.68.12-.94.35-.26.24-.41.56-.45.98h2.78c0-.28-.06-.52-.18-.72"/>
      <path class="cls-2" d="M32.31,29.78c-.27-.12-.48-.28-.63-.48-.15-.21-.24-.44-.26-.71h.76c.02.22.12.4.31.54.18.14.43.21.73.21.28,0,.5-.06.66-.18.16-.12.24-.28.24-.47s-.09-.34-.26-.43c-.17-.09-.44-.19-.79-.28-.33-.08-.59-.17-.8-.26-.21-.09-.38-.22-.53-.39-.15-.17-.22-.4-.22-.69,0-.23.07-.43.2-.62.13-.19.32-.34.57-.45.25-.11.53-.16.84-.16.49,0,.88.12,1.18.37.3.25.46.58.48,1.01h-.73c-.02-.23-.11-.41-.28-.55-.17-.14-.39-.21-.68-.21-.26,0-.47.06-.63.17-.16.11-.23.26-.23.44,0,.14.05.26.14.36.09.09.21.17.35.23.14.06.34.12.59.19.32.09.57.17.77.25.2.08.37.21.51.37.14.17.21.38.22.65,0,.24-.07.46-.2.65-.13.19-.32.34-.57.45-.24.11-.52.17-.84.17-.34,0-.64-.06-.91-.17"/>
      <path class="cls-2" d="M38.02,24.62c-.1-.1-.14-.21-.14-.35s.05-.26.14-.35.21-.14.35-.14.25.05.34.14c.09.1.14.21.14.35s-.05.26-.14.35c-.09.1-.21.14-.34.14s-.26-.05-.35-.14M38.73,29.88h-.73v-4.4h.73v4.4Z"/>
      <path class="cls-2" d="M46.17,25.62c.27.14.48.35.63.64.15.28.23.63.23,1.04v2.59h-.72v-2.49c0-.44-.11-.77-.33-1.01-.22-.23-.51-.35-.88-.35s-.68.12-.91.37c-.22.24-.34.6-.34,1.05v2.42h-.72v-2.49c0-.44-.11-.77-.32-1.01-.22-.23-.51-.35-.88-.35s-.68.12-.91.37c-.23.24-.34.6-.34,1.05v2.42h-.73v-4.4h.73v.63c.15-.23.34-.41.58-.53.24-.12.51-.18.81-.18.37,0,.7.08.98.25.28.17.49.41.63.73.12-.31.33-.55.61-.72.28-.17.6-.26.95-.26s.65.07.91.21"/>
      <path class="cls-2" d="M49.04,29.67c-.33-.19-.6-.45-.79-.8s-.28-.74-.28-1.2.1-.85.29-1.19c.2-.35.46-.61.8-.79.34-.18.71-.28,1.13-.28s.79.09,1.13.28c.34.18.6.45.8.79.2.34.29.74.29,1.2s-.1.85-.3,1.2-.47.61-.82.8c-.34.19-.72.28-1.14.28s-.79-.09-1.12-.28M50.89,29.13c.23-.12.42-.31.56-.55s.21-.55.21-.9-.07-.65-.21-.9c-.14-.25-.32-.43-.55-.55-.23-.12-.47-.18-.73-.18s-.51.06-.74.18c-.22.12-.4.3-.53.55-.13.25-.2.55-.2.9s.07.66.2.91c.13.25.31.43.52.55.22.12.46.18.72.18s.51-.06.74-.18"/>
      <path class="cls-2" d="M54.76,25.66c.29-.17.62-.25.99-.25.4,0,.75.09,1.07.28.32.19.56.45.75.79.18.34.27.73.27,1.18s-.09.84-.27,1.19c-.18.35-.43.62-.75.81-.32.19-.67.29-1.06.29s-.71-.08-1-.25c-.29-.16-.5-.38-.65-.63v.81h-.73v-5.94h.73v2.36c.15-.26.37-.48.66-.64M56.89,26.8c-.13-.25-.31-.43-.54-.56-.23-.13-.48-.19-.75-.19s-.51.07-.74.2c-.23.13-.41.32-.54.57-.14.25-.21.54-.21.86s.07.62.21.87c.14.25.32.44.54.57.23.13.48.2.74.2s.52-.06.75-.2c.23-.13.41-.32.54-.57.13-.25.2-.54.2-.88s-.07-.62-.2-.87"/>
      <path class="cls-2" d="M58.82,24.62c-.1-.1-.14-.21-.14-.35s.05-.26.14-.35.21-.14.35-.14.25.05.34.14c.09.1.14.21.14.35s-.05.26-.14.35c-.09.1-.21.14-.34.14s-.26-.05-.35-.14M59.53,29.88h-.73v-4.4h.73v4.4Z"/>
      <rect class="cls-2" x="60.78" y="23.94" width=".73" height="5.94"/>
      <path class="cls-2" d="M62.77,24.62c-.1-.1-.14-.21-.14-.35s.05-.26.14-.35c.1-.1.21-.14.35-.14s.25.05.34.14c.09.1.14.21.14.35s-.05.26-.14.35c-.09.1-.21.14-.34.14s-.26-.05-.35-.14M63.48,29.88h-.73v-4.4h.73v4.4Z"/>
      <path class="cls-2" d="M64.72,26.48c.18-.34.43-.6.75-.79.32-.19.67-.28,1.06-.28s.72.08,1,.25c.28.17.49.37.63.63v-.8h.74v4.4h-.74v-.82c-.15.26-.36.47-.65.64-.29.17-.62.25-1,.25s-.74-.1-1.06-.29c-.32-.19-.57-.46-.75-.81-.18-.35-.27-.74-.27-1.19s.09-.84.27-1.18M67.97,26.81c-.13-.25-.31-.43-.54-.56-.23-.13-.48-.2-.75-.2s-.52.06-.75.19c-.22.13-.4.32-.54.56-.13.25-.2.54-.2.87s.07.63.2.88c.13.25.31.44.54.57.22.13.47.2.75.2s.52-.07.75-.2c.23-.13.41-.32.54-.57s.2-.54.2-.87-.07-.62-.2-.87M67.6,24.24l-1.71.91v-.55l1.71-1v.63Z"/>
      <path class="cls-2" d="M71.43,25.61c.24-.14.53-.21.87-.21v.76h-.19c-.82,0-1.23.44-1.23,1.33v2.39h-.73v-4.4h.73v.71c.13-.25.31-.45.55-.59"/>
      <path class="cls-2" d="M73.17,24.62c-.1-.1-.14-.21-.14-.35s.05-.26.14-.35c.1-.1.21-.14.35-.14s.25.05.34.14c.09.1.14.21.14.35s-.05.26-.14.35c-.09.1-.21.14-.34.14s-.26-.05-.35-.14M73.87,29.88h-.73v-4.4h.73v4.4Z"/>
      <path class="cls-2" d="M75.12,26.48c.18-.34.43-.6.75-.79.32-.19.67-.28,1.06-.28s.72.08,1,.25c.28.17.49.38.63.63v-.8h.74v4.4h-.74v-.82c-.15.26-.36.47-.65.64-.29.17-.62.25-1,.25s-.74-.1-1.06-.29c-.32-.19-.57-.46-.75-.81-.18-.35-.27-.74-.27-1.19s.09-.84.27-1.18M78.37,26.81c-.13-.25-.31-.43-.54-.57-.23-.13-.48-.2-.75-.2s-.52.06-.75.19c-.22.13-.4.32-.54.56-.13.25-.2.53-.2.87s.07.63.2.88c.13.25.31.44.54.57.23.13.47.2.75.2s.52-.07.75-.2c.23-.13.41-.32.54-.57.13-.25.2-.54.2-.87s-.07-.62-.2-.87"/>
      <path class="cls-2" d="M81.19,29.78c-.27-.12-.48-.28-.63-.48-.15-.21-.24-.44-.26-.71h.76c.02.22.12.4.31.54.18.14.43.21.73.21.28,0,.5-.06.66-.18.16-.12.24-.28.24-.47s-.09-.34-.26-.43c-.17-.09-.44-.19-.79-.28-.33-.08-.59-.17-.8-.26-.21-.09-.38-.22-.53-.39-.15-.17-.22-.4-.22-.69,0-.23.07-.43.2-.62.13-.19.32-.34.57-.45.25-.11.53-.16.84-.16.49,0,.88.12,1.18.37.3.25.46.58.48,1.01h-.73c-.02-.23-.11-.41-.28-.55-.17-.14-.39-.21-.68-.21-.26,0-.47.06-.63.17-.16.11-.23.26-.23.44,0,.14.05.26.14.36.09.09.21.17.35.23.14.06.34.12.59.19.32.09.57.17.77.25.2.08.37.21.51.37.14.17.21.38.22.65,0,.24-.07.46-.2.65-.13.19-.32.34-.57.45-.24.11-.52.17-.84.17-.34,0-.64-.06-.91-.17"/>
    </g>
  </g>
</svg>