<?xml version="1.0" encoding="UTF-8"?>
<svg id="Layer_2" data-name="Layer 2" xmlns="http://www.w3.org/2000/svg" xmlns:xlink="http://www.w3.org/1999/xlink" viewBox="0 0 106.48 55.5">
  <defs>
    <style>
      .cls-1 {
        fill: none;
      }

      .cls-2 {
        fill: #fff;
      }

      .cls-3 {
        clip-path: url(#clippath);
      }
    </style>
    <clipPath id="clippath">
      <rect class="cls-1" x="0" width="106.48" height="55.5"/>
    </clipPath>
  </defs>
  <g id="Layer_1-2" data-name="Layer 1">
    <g class="cls-3">
      <path class="cls-2" d="M17.85,40.25v-.02c0-2.24,1.69-4.08,4.11-4.08,1.18,0,1.97.32,2.63.8.18.14.34.38.34.69,0,.48-.37.85-.86.85-.24,0-.39-.09-.52-.17-.48-.36-.98-.56-1.61-.56-1.33,0-2.29,1.1-2.29,2.45v.02c0,1.35.93,2.48,2.29,2.48.73,0,1.21-.22,1.71-.62.15-.12.33-.19.52-.19.44,0,.81.36.81.8,0,.27-.12.48-.29.62-.71.62-1.54.99-2.8.99-2.32,0-4.04-1.79-4.04-4.05"/>
      <path class="cls-2" d="M32.83,43.59c-.18-.12-.33-.32-.33-.59,0-.39.28-.68.67-.68.12,0,.24.03.34.09.57.36,1.15.54,1.63.54s.72-.18.72-.45v-.02c0-.37-.59-.48-1.25-.7-.84-.24-1.8-.64-1.8-1.81v-.02c0-1.23.99-1.91,2.21-1.91.63,0,1.28.16,1.87.46.26.12.4.34.4.64,0,.39-.29.68-.69.68-.1,0-.21-.02-.32-.08-.48-.24-.95-.38-1.31-.38-.42,0-.63.18-.63.42v.02c0,.32.57.52,1.23.72.84.27,1.82.69,1.82,1.79v.02c0,1.34-1,1.95-2.31,1.95-.75,0-1.54-.2-2.27-.69"/>
      <path class="cls-2" d="M40.48,43.48c-.04,1.07-1.65,1.06-1.67-.01v-3.86s0,0,0,0h-.01c-.39,0-.73-.28-.77-.67-.04-.43.3-.79.73-.79h.06v-.71c0-.5.41-.93.9-.9.46.02.81.39.81.85v.74s0,0,0,0h.71c.39,0,.73.28.77.67.04.43-.3.79-.73.79h-.75s0,0,0,0c0,.15-.04,2.53-.04,2.85,0,.02,0,1.01,0,1.03"/>
      <path class="cls-2" d="M45.89,44.3c-1.81,0-3.15-1.27-3.15-3.12v-.02c0-1.72,1.23-3.14,2.98-3.14,2.03,0,2.9,1.64,2.9,2.9,0,.49-.35.82-.8.82h-3.39c.17.78.71,1.18,1.47,1.18.48,0,.87-.15,1.22-.41.12-.09.24-.13.42-.13.39,0,.66.28.66.68,0,.23-.1.38-.23.51-.53.45-1.2.73-2.09.73M47,40.68c-.1-.77-.55-1.28-1.27-1.28s-1.17.51-1.31,1.28h2.58Z"/>
      <path class="cls-2" d="M50.01,36.74c0-.48.37-.85.86-.85s.86.37.86.85v6.64c0,.48-.37.85-.86.85s-.86-.37-.86-.85v-6.64Z"/>
      <path class="cls-2" d="M53.63,39.6h-.07c-.39,0-.71-.3-.71-.7s.32-.71.71-.71h.07v-.38c0-.65.16-1.14.48-1.46.32-.32.78-.47,1.38-.47.27,0,.51.01.7.04.3.04.59.29.59.69s-.3.71-.7.71h-.15c-.42,0-.62.21-.62.65v.24h.74c.39,0,.71.3.71.7s-.32.7-.71.7h-.72v3.78c0,.48-.37.85-.86.85s-.86-.37-.86-.85v-3.78Z"/>
      <path class="cls-2" d="M57.63,38.92c0-.48.37-.86.86-.86s.86.37.86.86v.27c.26-.59.65-1.13,1.16-1.13s.83.35.83.83c0,.45-.29.72-.64.8-.87.21-1.35.87-1.35,2.08v1.6c0,.48-.37.86-.86.86s-.86-.37-.86-.86v-4.46Z"/>
      <path class="cls-2" d="M68.72,38.92c0-.48.37-.86.86-.86s.86.37.86.86v.07c.39-.51.91-.97,1.77-.97,1.3,0,2.05.85,2.05,2.24v3.12c0,.48-.37.86-.86.86s-.86-.37-.86-.86v-2.58c0-.81-.37-1.23-1.04-1.23s-1.07.42-1.07,1.23v2.58c0,.48-.37.86-.86.86s-.86-.37-.86-.86v-4.46Z"/>
      <path class="cls-2" d="M75.44,41.19v-.02c0-1.72,1.32-3.14,3.16-3.14.91,0,1.55.24,2.06.67.12.09.27.28.27.59,0,.44-.34.77-.78.77-.23,0-.39-.09-.5-.17-.3-.24-.62-.38-1.07-.38-.86,0-1.46.74-1.46,1.64v.02c0,.93.6,1.67,1.53,1.67.45,0,.8-.16,1.12-.42.09-.08.25-.16.46-.16.4,0,.72.33.72.73,0,.23-.1.4-.25.54-.51.46-1.15.78-2.14.78-1.81,0-3.14-1.41-3.14-3.12"/>
      <path class="cls-2" d="M81.7,41.19v-.02c0-1.73,1.4-3.14,3.28-3.14s3.25,1.37,3.25,3.12v.02c0,1.73-1.4,3.14-3.28,3.14s-3.25-1.37-3.25-3.12M86.55,41.19v-.02c0-.89-.64-1.67-1.59-1.67s-1.57.74-1.57,1.64v.02c0,.89.64,1.67,1.59,1.67s1.57-.74,1.57-1.64"/>
      <path class="cls-2" d="M67.18,43.58c0,.37-.3.66-.66.66h-.04c-.36,0-.66-.3-.66-.66-.36.5-.88.75-1.54.75-1.39,0-2.47-1.15-2.47-2.96s1.07-2.96,2.47-2.96c.54,0,1.01.18,1.36.55.07.07.09.06.09-.04v-.22c-.01-.39.3-.7.69-.71.39,0,.71.31.71.71l.06,4.88ZM65.77,41.37c0-.99-.55-1.59-1.26-1.59s-1.27.6-1.27,1.59.55,1.59,1.27,1.59,1.26-.6,1.26-1.59"/>
      <path class="cls-2" d="M31.26,43.63c0,.37-.3.66-.66.66h-.04c-.36,0-.66-.3-.66-.66-.36.5-.88.75-1.54.75-1.39,0-2.47-1.15-2.47-2.96s1.07-2.96,2.47-2.96c.54,0,1.01.18,1.36.55.07.07.09.06.09-.04v-.22c-.01-.39.3-.7.69-.71.39,0,.71.31.71.71l.06,4.88ZM29.85,41.42c0-.99-.55-1.59-1.26-1.59s-1.27.6-1.27,1.59.55,1.59,1.27,1.59,1.26-.6,1.26-1.59"/>
      <polygon class="cls-2" points="3.47 53.59 3.47 54.18 0 54.18 0 49.41 3.37 49.41 3.37 50 .68 50 .68 51.47 3.08 51.47 3.08 52.05 .68 52.05 .68 53.59 3.47 53.59"/>
      <path class="cls-2" d="M10.48,52.1v2.08h-.65v-2.01c0-.71-.34-1.06-.93-1.06-.66,0-1.09.42-1.09,1.2v1.86h-.65v-2.01c0-.71-.34-1.06-.93-1.06-.65,0-1.08.42-1.08,1.2v1.86h-.65v-3.62h.63v.54c.26-.37.7-.57,1.25-.57s1.02.22,1.26.67c.27-.41.78-.67,1.39-.67.88,0,1.48.51,1.48,1.57"/>
      <path class="cls-2" d="M15.43,52.37c0,1.11-.77,1.85-1.83,1.85-.51,0-.96-.2-1.26-.59v1.87h-.66v-4.94h.63v.57c.29-.4.76-.61,1.29-.61,1.06,0,1.83.74,1.83,1.84M14.77,52.37c0-.76-.52-1.27-1.22-1.27s-1.21.5-1.21,1.27.52,1.28,1.21,1.28,1.22-.51,1.22-1.28"/>
      <path class="cls-2" d="M18.29,50.53v.63c-.05,0-.1,0-.15,0-.7,0-1.14.43-1.14,1.22v1.8h-.65v-3.62h.63v.61c.23-.42.68-.64,1.32-.64"/>
      <path class="cls-2" d="M22.31,52.59h-2.93c.08.63.59,1.06,1.31,1.06.42,0,.78-.14,1.04-.44l.36.42c-.33.38-.82.59-1.43.59-1.17,0-1.94-.77-1.94-1.85s.77-1.84,1.82-1.84,1.79.75,1.79,1.86c0,.06,0,.14-.01.2M19.38,52.12h2.32c-.07-.61-.53-1.04-1.16-1.04s-1.09.42-1.16,1.04"/>
      <path class="cls-2" d="M26.49,52.59h-2.93c.08.63.59,1.06,1.31,1.06.42,0,.78-.14,1.04-.44l.36.42c-.33.38-.82.59-1.43.59-1.17,0-1.94-.77-1.94-1.85s.77-1.84,1.82-1.84,1.79.75,1.79,1.86c0,.06,0,.14-.01.2M23.55,52.12h2.32c-.07-.61-.53-1.04-1.16-1.04s-1.09.42-1.16,1.04"/>
      <path class="cls-2" d="M30.84,52.1v2.08h-.65v-2.01c0-.71-.36-1.06-.98-1.06-.7,0-1.15.42-1.15,1.2v1.86h-.65v-3.62h.63v.55c.27-.37.73-.58,1.3-.58.88,0,1.5.51,1.5,1.57"/>
      <path class="cls-2" d="M35.49,49.12v5.06h-.63v-.57c-.29.41-.76.61-1.29.61-1.06,0-1.83-.74-1.83-1.85s.77-1.84,1.83-1.84c.51,0,.96.19,1.26.58v-1.99h.65ZM34.84,52.37c0-.77-.52-1.27-1.21-1.27s-1.22.5-1.22,1.27.53,1.28,1.22,1.28,1.21-.51,1.21-1.28"/>
      <path class="cls-2" d="M36.61,49.45c0-.24.19-.43.44-.43s.44.18.44.42c0,.25-.18.44-.44.44s-.44-.18-.44-.42M36.73,50.56h.65v3.62h-.65v-3.62Z"/>
      <path class="cls-2" d="M44.64,52.1v2.08h-.65v-2.01c0-.71-.34-1.06-.93-1.06-.65,0-1.08.42-1.08,1.2v1.86h-.65v-2.01c0-.71-.34-1.06-.93-1.06-.65,0-1.08.42-1.08,1.2v1.86h-.65v-3.62h.63v.54c.26-.37.7-.57,1.25-.57s1.02.22,1.26.67c.27-.41.78-.67,1.39-.67.88,0,1.48.51,1.48,1.57"/>
      <path class="cls-2" d="M49.12,52.59h-2.93c.08.63.59,1.06,1.31,1.06.42,0,.78-.14,1.04-.44l.36.42c-.33.38-.82.59-1.43.59-1.17,0-1.94-.77-1.94-1.85s.77-1.84,1.82-1.84,1.79.75,1.79,1.86c0,.06,0,.14-.01.2M46.19,52.12h2.32c-.07-.61-.53-1.04-1.16-1.04s-1.09.42-1.16,1.04"/>
      <path class="cls-2" d="M53.47,52.1v2.08h-.65v-2.01c0-.71-.35-1.06-.98-1.06-.7,0-1.15.42-1.15,1.2v1.86h-.65v-3.62h.63v.55c.27-.37.73-.58,1.3-.58.88,0,1.5.51,1.5,1.57"/>
      <path class="cls-2" d="M56.72,53.97c-.2.17-.5.25-.79.25-.73,0-1.15-.4-1.15-1.13v-1.99h-.61v-.54h.61v-.79h.65v.79h1.04v.54h-1.04v1.96c0,.39.2.61.57.61.19,0,.38-.06.51-.17l.2.47Z"/>
      <path class="cls-2" d="M57.06,52.37c0-1.08.8-1.84,1.88-1.84s1.88.76,1.88,1.84-.79,1.85-1.88,1.85-1.88-.77-1.88-1.85M60.15,52.37c0-.77-.52-1.27-1.21-1.27s-1.22.5-1.22,1.27.53,1.28,1.22,1.28,1.21-.51,1.21-1.28"/>
      <path class="cls-2" d="M61.27,53.8l.27-.52c.31.22.8.38,1.27.38.61,0,.86-.18.86-.49,0-.81-2.29-.11-2.29-1.55,0-.65.58-1.09,1.51-1.09.47,0,1,.12,1.32.33l-.28.52c-.33-.21-.69-.29-1.04-.29-.57,0-.85.21-.85.5,0,.85,2.29.16,2.29,1.56,0,.65-.6,1.07-1.56,1.07-.6,0-1.19-.18-1.49-.42"/>
      <path class="cls-2" d="M66.86,49.45c0-.24.19-.43.44-.43s.44.18.44.42c0,.25-.18.44-.44.44s-.44-.18-.44-.42M66.98,50.56h.65v3.62h-.65v-3.62Z"/>
      <path class="cls-2" d="M74.88,52.1v2.08h-.65v-2.01c0-.71-.34-1.06-.93-1.06-.65,0-1.08.42-1.08,1.2v1.86h-.65v-2.01c0-.71-.34-1.06-.93-1.06-.65,0-1.08.42-1.08,1.2v1.86h-.65v-3.62h.63v.54c.26-.37.7-.57,1.25-.57s1.02.22,1.26.67c.27-.41.78-.67,1.39-.67.88,0,1.48.51,1.48,1.57"/>
      <path class="cls-2" d="M75.78,52.37c0-1.08.8-1.84,1.88-1.84s1.88.76,1.88,1.84-.79,1.85-1.88,1.85-1.88-.77-1.88-1.85M78.88,52.37c0-.77-.52-1.27-1.21-1.27s-1.22.5-1.22,1.27.53,1.28,1.22,1.28,1.21-.51,1.21-1.28"/>
      <path class="cls-2" d="M84.19,52.37c0,1.1-.77,1.85-1.83,1.85-.53,0-1-.21-1.29-.61v.57h-.63v-5.06h.66v1.99c.3-.39.75-.58,1.26-.58,1.06,0,1.83.74,1.83,1.84M83.53,52.37c0-.77-.52-1.27-1.22-1.27s-1.21.5-1.21,1.27.53,1.28,1.21,1.28,1.22-.51,1.22-1.28"/>
      <path class="cls-2" d="M84.98,49.45c0-.24.19-.43.44-.43s.44.18.44.42c0,.25-.18.44-.44.44s-.44-.18-.44-.42M85.1,50.56h.65v3.62h-.65v-3.62Z"/>
      <rect class="cls-2" x="87" y="49.12" width=".65" height="5.06"/>
      <path class="cls-2" d="M88.79,49.45c0-.24.19-.43.44-.43s.44.18.44.42c0,.25-.18.44-.44.44s-.44-.18-.44-.42M88.91,50.56h.65v3.62h-.65v-3.62Z"/>
      <path class="cls-2" d="M93.68,52v2.18h-.62v-.48c-.22.33-.62.52-1.19.52-.82,0-1.34-.44-1.34-1.06,0-.58.38-1.06,1.45-1.06h1.04v-.13c0-.55-.32-.87-.97-.87-.43,0-.87.15-1.15.39l-.27-.49c.38-.3.91-.46,1.49-.46.99,0,1.55.48,1.55,1.47M93.02,53.08v-.5h-1.01c-.65,0-.83.25-.83.56,0,.36.3.59.8.59s.88-.23,1.04-.64M92.28,50.04h-.61l.93-.89h.83l-1.15.89Z"/>
      <path class="cls-2" d="M96.83,50.53v.63c-.05,0-.1,0-.15,0-.7,0-1.14.43-1.14,1.22v1.8h-.65v-3.62h.63v.61c.23-.42.68-.64,1.32-.64"/>
      <path class="cls-2" d="M97.52,49.45c0-.24.19-.43.44-.43s.44.18.44.42c0,.25-.18.44-.44.44s-.44-.18-.44-.42M97.64,50.56h.65v3.62h-.65v-3.62Z"/>
      <path class="cls-2" d="M99.21,52.37c0-1.08.8-1.84,1.88-1.84s1.88.76,1.88,1.84-.79,1.85-1.88,1.85-1.88-.77-1.88-1.85M102.31,52.37c0-.77-.52-1.27-1.21-1.27s-1.22.5-1.22,1.27.53,1.28,1.22,1.28,1.21-.51,1.21-1.28"/>
      <path class="cls-2" d="M103.42,53.8l.27-.52c.31.22.8.38,1.27.38.61,0,.86-.18.86-.49,0-.81-2.29-.11-2.29-1.55,0-.65.58-1.09,1.51-1.09.47,0,1,.12,1.32.33l-.28.52c-.33-.21-.69-.29-1.04-.29-.57,0-.85.21-.85.5,0,.85,2.29.16,2.29,1.56,0,.65-.6,1.07-1.56,1.07-.6,0-1.19-.18-1.49-.42"/>
      <path class="cls-2" d="M53.39,30.41c-.8-.35-1.63-.62-2.49-.76-5.89-1.01-9.6-6.64-9.45-12.93.15-6.55,5.5-11.89,12.05-12.05,11.51.46,13.35,10.69,13.56,13.38.03.34.33.59.66.55.31-.04.55-.28.59-.58.07-.57.18-1.48.19-2.04.17-8.57-6.73-15.72-15.3-15.84C44.52,0,37.45,7,37.45,15.65c0,7.25,4.64,13.55,11.3,15.32,1.51.4,3.1.45,4.65.21.37-.06.44-.57.09-.72l-.1-.04Z"/>
      <path class="cls-2" d="M63.75,16.43s-.08-.1-.11-.16c-1.58-3.74-5.28-6.36-9.59-6.36-.98,0-1.93.14-2.83.39-3.59,1.64-6.09,5.27-6.09,9.48,0,.54.04,1.08.12,1.6-.02.32-.41.46-.63.22-.1-.11-.18-.25-.23-.39-.32-.95-.5-1.96-.54-3.01,0-.1,0-.21,0-.31,0-5.75,4.66-10.41,10.41-10.41,4,0,7.47,2.25,9.21,5.55.51.96.87,2,1.06,3.11-.03.39-.5.56-.78.29"/>
    </g>
  </g>
</svg>