<?xml version="1.0" encoding="UTF-8"?>
<svg id="Layer_2" data-name="Layer 2" xmlns="http://www.w3.org/2000/svg" xmlns:xlink="http://www.w3.org/1999/xlink" viewBox="0 0 376.73 59.84">
  <defs>
    <style>
      .cls-1 {
        fill: none;
      }

      .cls-2, .cls-3 {
        fill: #fff;
      }

      .cls-2, .cls-4 {
        fill-rule: evenodd;
      }

      .cls-5 {
        clip-path: url(#clippath-1);
      }

      .cls-6 {
        clip-path: url(#clippath-2);
      }

      .cls-7, .cls-4 {
        fill: #082d4c;
      }

      .cls-8 {
        fill: #e72427;
      }

      .cls-9 {
        fill: #bed431;
      }

      .cls-10 {
        clip-path: url(#clippath);
      }
    </style>
    <clipPath id="clippath">
      <rect class="cls-1" x="250.81" y="10.13" width="125.92" height="49.71"/>
    </clipPath>
    <clipPath id="clippath-1">
      <rect class="cls-1" x="130.17" y=".07" width="106.48" height="55.5"/>
    </clipPath>
    <clipPath id="clippath-2">
      <rect class="cls-1" y="18.54" width="85.85" height="31.97"/>
    </clipPath>
  </defs>
  <g id="Layer_1-2" data-name="Layer 1">
    <g>
      <g>
        <path class="cls-3" d="M23.89,3.22c-.16.06-.47.15-.85.15-.42,0-.76-.11-1.03-.36-.24-.23-.38-.6-.38-1.03,0-.82.57-1.42,1.49-1.42.32,0,.57.07.69.13l-.09.29c-.15-.07-.33-.12-.61-.12-.67,0-1.11.42-1.11,1.11s.42,1.11,1.06,1.11c.23,0,.39-.03.47-.07v-.82h-.56v-.29h.91v1.32Z"/>
        <path class="cls-3" d="M26.18,2.05h-1.07v.99h1.19v.3h-1.55V.59h1.49v.3h-1.13v.87h1.07v.29Z"/>
        <path class="cls-3" d="M26.96,2.91c.16.1.39.18.64.18.36,0,.58-.19.58-.47,0-.26-.15-.41-.52-.55-.45-.16-.73-.39-.73-.78,0-.43.36-.75.89-.75.28,0,.49.07.61.13l-.1.29c-.09-.05-.27-.13-.52-.13-.38,0-.52.22-.52.41,0,.26.17.38.55.53.47.18.7.41.7.81s-.31.79-.97.79c-.27,0-.56-.08-.7-.18l.09-.3Z"/>
        <path class="cls-3" d="M29.72.89h-.84v-.3h2.04v.3h-.84v2.45h-.36V.89Z"/>
        <path class="cls-3" d="M31.56,2.48l-.29.87h-.37l.94-2.76h.43l.94,2.76h-.38l-.29-.87h-.98ZM31.56.42c0-.25.1-.42.28-.42.09,0,.16.04.25.08.07.04.13.07.19.07.07,0,.1-.03.11-.16h.19c0,.26-.09.4-.28.4-.09,0-.16-.03-.25-.08-.08-.04-.13-.08-.19-.08-.07,0-.09.07-.11.18h-.19ZM32.47,2.2l-.27-.79c-.06-.18-.1-.34-.14-.5h0c-.04.16-.09.33-.14.5l-.27.8h.83Z"/>
        <path class="cls-3" d="M36.16,1.94c0,.95-.58,1.45-1.28,1.45s-1.24-.56-1.24-1.4c0-.88.54-1.45,1.28-1.45s1.24.58,1.24,1.39ZM34.03,1.98c0,.59.32,1.12.88,1.12s.88-.52.88-1.15c0-.55-.29-1.12-.88-1.12s-.88.54-.88,1.15Z"/>
        <path class="cls-3" d="M38.11.62c.22-.03.47-.06.76-.06.51,0,.88.12,1.12.34.25.23.39.54.39.99s-.14.82-.4,1.07c-.26.26-.68.4-1.22.4-.25,0-.47-.01-.65-.03V.62ZM38.47,3.06c.09.02.22.02.36.02.76,0,1.17-.43,1.17-1.17,0-.65-.36-1.06-1.12-1.06-.18,0-.32.02-.42.04v2.18Z"/>
        <path class="cls-3" d="M42.58,2.05h-1.07v.99h1.19v.3h-1.55V.59h1.49v.3h-1.13v.87h1.07v.29Z"/>
        <path class="cls-3" d="M45.25,3.34l-.9-2.76h.38l.43,1.36c.12.37.22.71.29,1.03h0c.08-.32.19-.67.31-1.03l.47-1.36h.38l-.99,2.76h-.39Z"/>
        <path class="cls-3" d="M48.67,2.05h-1.07v.99h1.19v.3h-1.55V.59h1.49v.3h-1.13v.87h1.07v.29Z"/>
        <path class="cls-3" d="M49.56,3.34V.59h.39l.88,1.39c.2.32.36.61.5.9h0c-.03-.37-.04-.71-.04-1.14V.59h.34v2.76h-.36l-.88-1.4c-.19-.31-.38-.62-.52-.92h-.01c.02.35.03.68.03,1.14v1.18h-.33Z"/>
        <path class="cls-3" d="M52.56.62c.22-.03.47-.06.76-.06.51,0,.88.12,1.12.34.25.23.39.54.39.99s-.14.82-.4,1.07c-.26.26-.68.4-1.22.4-.25,0-.47-.01-.65-.03V.62ZM52.92,3.06c.09.02.22.02.36.02.76,0,1.17-.43,1.17-1.17,0-.65-.36-1.06-1.12-1.06-.18,0-.32.02-.42.04v2.18Z"/>
        <path class="cls-3" d="M55.94,2.48l-.29.87h-.37l.94-2.76h.43l.94,2.76h-.38l-.29-.87h-.98ZM56.84,2.2l-.27-.79c-.06-.18-.1-.34-.14-.5h0c-.04.16-.09.33-.14.5l-.27.8h.83Z"/>
        <path class="cls-3" d="M58.16,2.91c.16.1.39.18.64.18.36,0,.58-.19.58-.47,0-.26-.15-.41-.52-.55-.45-.16-.73-.39-.73-.78,0-.43.36-.75.89-.75.28,0,.49.07.61.13l-.1.29c-.09-.05-.27-.13-.52-.13-.38,0-.52.22-.52.41,0,.26.17.38.55.53.47.18.7.41.7.81s-.31.79-.97.79c-.27,0-.56-.08-.7-.18l.09-.3Z"/>
        <path class="cls-3" d="M60.44,1.69c0-.15.1-.26.25-.26s.24.11.24.26c0,.14-.09.25-.25.25-.14,0-.24-.11-.24-.25ZM60.44,3.14c0-.15.1-.26.25-.26s.24.11.24.26c0,.14-.09.25-.25.25-.14,0-.24-.11-.24-.25Z"/>
      </g>
      <g>
        <path class="cls-3" d="M233.25.62c.18-.04.44-.06.68-.06.38,0,.62.07.8.22.14.12.22.31.22.52,0,.36-.23.61-.52.7h0c.21.09.34.28.41.57.09.38.16.65.21.76h-.37c-.04-.08-.11-.31-.18-.66-.08-.38-.23-.52-.55-.54h-.33v1.19h-.36V.62ZM233.6,1.88h.36c.38,0,.62-.21.62-.52,0-.36-.26-.51-.63-.52-.17,0-.29.02-.35.03v1.01Z"/>
        <path class="cls-3" d="M237.19,2.05h-1.07v.99h1.19v.3h-1.55V.59h1.49v.3h-1.13v.87h1.07v.29Z"/>
        <path class="cls-3" d="M238.53,2.48l-.29.87h-.37l.94-2.76h.43l.94,2.76h-.38l-.29-.87h-.98ZM239.43,2.2l-.27-.79c-.06-.18-.1-.34-.14-.5h0c-.04.16-.09.33-.14.5l-.27.8h.83Z"/>
        <path class="cls-3" d="M240.9.59h.36v2.46h1.18v.3h-1.53V.59Z"/>
        <path class="cls-3" d="M243.49.59v2.76h-.36V.59h.36Z"/>
        <path class="cls-3" d="M244.23,3.14l1.53-2.24h0s-1.4-.01-1.4-.01v-.3h1.86v.22l-1.52,2.23h0s1.54.01,1.54.01v.3h-2.01v-.21Z"/>
        <path class="cls-3" d="M247.4,2.48l-.29.87h-.37l.94-2.76h.43l.94,2.76h-.38l-.29-.87h-.98ZM248.3,2.2l-.27-.79c-.06-.18-.1-.34-.14-.5h0c-.04.16-.09.33-.14.5l-.27.8h.83Z"/>
        <path class="cls-3" d="M251.57,3.25c-.13.07-.39.13-.72.13l-.09.16c.15.03.29.14.29.31,0,.24-.21.33-.42.33-.11,0-.22-.03-.29-.07l.06-.18c.06.03.14.05.23.05s.17-.04.17-.12c0-.11-.13-.16-.32-.18l.17-.32c-.67-.08-1.16-.56-1.16-1.38,0-.86.58-1.45,1.44-1.45.34,0,.56.07.65.12l-.09.29c-.13-.06-.33-.11-.56-.11-.65,0-1.08.41-1.08,1.14,0,.67.39,1.11,1.06,1.11.22,0,.44-.04.58-.11l.07.28Z"/>
        <path class="cls-3" d="M252.66,2.48l-.29.87h-.37l.94-2.76h.43l.94,2.76h-.38l-.29-.87h-.98ZM252.66.42c0-.25.1-.42.28-.42.09,0,.16.04.25.08.07.04.13.07.19.07.07,0,.1-.03.11-.16h.19c0,.26-.09.4-.28.4-.09,0-.16-.03-.25-.08-.08-.04-.13-.08-.19-.08-.07,0-.09.07-.11.18h-.19ZM253.57,2.2l-.27-.79c-.06-.18-.1-.34-.14-.5h0c-.04.16-.09.33-.14.5l-.27.8h.83Z"/>
        <path class="cls-3" d="M257.26,1.94c0,.95-.58,1.45-1.28,1.45s-1.24-.56-1.24-1.4c0-.88.54-1.45,1.28-1.45s1.24.58,1.24,1.39ZM255.13,1.98c0,.59.32,1.12.88,1.12s.88-.52.88-1.15c0-.55-.29-1.12-.88-1.12s-.88.54-.88,1.15Z"/>
        <path class="cls-3" d="M257.94,1.69c0-.15.1-.26.25-.26s.24.11.24.26c0,.14-.09.25-.25.25-.14,0-.24-.11-.24-.25ZM257.94,3.14c0-.15.1-.26.25-.26s.24.11.24.26c0,.14-.09.25-.25.25-.14,0-.24-.11-.24-.25Z"/>
      </g>
      <g class="cls-10">
        <path class="cls-8" d="M103.32,44.18l-.3-.23-.31-.25c-2.08-1.75-3.49-4.1-4.1-6.69-.23.38-.5.74-.81,1.05h0c-1.05,1.07-2.44,1.67-3.92,1.67-1.48,0-2.87-.6-3.92-1.67h0c-1.03-1.04-1.66-2.5-1.66-4.1v-.36c.16-3.03,2.59-5.45,5.56-5.45.47,0,.93.07,1.39.18h0c1.22.3,2.26,1.02,3.02,1.98v-6.6c-.1-.04-.19-.09-.29-.13h0c-.28-.12-.56-.22-.85-.31-.27-.09-.54-.16-.82-.23-.02,0-.04-.01-.06-.01-.77-.18-1.57-.28-2.38-.28-5.88,0-10.67,4.89-10.79,10.94h.01v.27c0,3.49,1.56,6.62,3.99,8.66.02.01.03.03.05.04.04.04.09.08.14.11.04.03.07.06.11.09.03.02.05.04.08.06.06.04.11.08.17.13,0,0,.02.01.03.02.62.46,1.29.84,1.99,1.15h0c.16.08.33.15.49.21.05.02.1.04.15.06.29.11.59.21.89.29,0,0,.02,0,.03,0,.07.02.14.03.21.05.02,0,.04.01.07.02.06.01.11.03.17.04.03,0,.07.02.1.02.04,0,.09.02.13.03.05,0,.09.02.14.03.04,0,.07.01.1.02.05.01.11.02.17.03.02,0,.05,0,.07.01.07,0,.13.02.2.03.02,0,.03,0,.05,0,.07,0,.15.02.22.03,0,0,.02,0,.02,0,.08,0,.16.02.24.02h0c.09,0,.17.01.26.02h0c.09,0,.18,0,.26,0,.02,0,.04,0,.06,0,.07,0,.13,0,.2,0h.02c.07,0,.13,0,.2,0,.02,0,.04,0,.06,0,.09,0,.18,0,.26,0h0c.09,0,.17-.01.26-.02h0c.08,0,.16-.01.24-.02,0,0,.01,0,.02,0,.07,0,.15-.02.22-.03.01,0,.03,0,.05,0,.07,0,.13-.02.2-.03.03,0,.05,0,.07-.01.06,0,.11-.02.17-.03.04,0,.07-.01.1-.02.04,0,.09-.02.13-.03.05,0,.09-.02.14-.03.04,0,.07-.01.1-.02.06-.01.11-.02.17-.04.02,0,.04-.01.07-.02.07-.02.14-.03.2-.05.01,0,.02,0,.03,0,.3-.08.6-.18.89-.29.05-.02.1-.04.15-.06.17-.06.33-.12.49-.2h0c.47-.22.93-.47,1.37-.75-.26,2.94-2.65,5.25-5.56,5.25-1.48,0-2.88-.59-3.93-1.67l-3.68,3.84c2.04,2.08,4.74,3.23,7.6,3.23,5.29,0,9.7-3.96,10.62-9.16-.43-.24-.85-.5-1.26-.8"/>
        <path class="cls-9" d="M95.25-27.26v5.48c2.48.61,4.29,2.92,4.29,5.62V-7.15c0,3.18-2.5,5.77-5.58,5.77-1.48,0-2.88-.59-3.93-1.67l-3.67,3.84c2.04,2.09,4.74,3.23,7.6,3.23,5.96,0,10.8-5.01,10.8-11.17v-9.01c0-5.65-4.09-10.42-9.51-11.09"/>
        <path class="cls-4" d="M169.11,46.38c0,.44-.14.71-.6.71s-.6-.26-.6-.71v-1.04h-.42v1.04c0,.59.29,1.07,1.02,1.07s1.02-.48,1.02-1.07v-1.04h-.42v1.04Z"/>
        <path class="cls-4" d="M173.94,46.04c0-.24-.15-.69-.73-.69h-1.24v2.08h.42v-.66h.59l.47.66h.49l-.49-.69c.37-.09.49-.45.49-.71h0ZM173.25,46.43h-.86v-.72h.82c.29,0,.35.25.35.39s-.07.34-.3.34h0Z"/>
        <path class="cls-4" d="M177.83,46.29c.16-.08.22-.22.22-.4,0-.24-.09-.53-.73-.53h-.99v2.08h1.17c.44,0,.71-.18.71-.57,0-.3-.09-.5-.37-.58h0ZM177.32,45.71c.29,0,.35.09.35.23s-.08.21-.3.21h-.61v-.44h.57ZM177.5,47.09h-.75v-.59h.61c.36,0,.41.14.41.31s-.06.28-.28.28"/>
        <path class="cls-4" d="M181.19,45.35l-.76,2.09h.42l.17-.46h.97l.17.46h.42l-.76-2.09h-.62ZM181.14,46.63l.34-.92h.04l.34.92h-.71Z"/>
        <polygon class="cls-4" points="186.45 47.44 186.85 47.44 186.85 45.35 186.46 45.35 186.46 46.82 185.28 45.35 184.89 45.35 184.89 47.44 185.27 47.44 185.27 45.96 186.45 47.44"/>
        <rect class="cls-7" x="189.32" y="45.35" width=".42" height="2.08"/>
        <polygon class="cls-4" points="198.94 47.44 198.94 45.35 198.55 45.35 197.72 47.06 196.9 45.35 196.51 45.35 196.51 47.44 196.9 47.44 196.9 46.19 197.49 47.44 197.95 47.44 198.55 46.19 198.55 47.44 198.94 47.44"/>
        <path class="cls-4" d="M202.42,45.32c-.73,0-1.2.48-1.2,1.08s.47,1.07,1.2,1.07,1.2-.48,1.2-1.07-.47-1.08-1.2-1.08M202.42,47.1c-.54,0-.77-.26-.77-.71s.23-.71.77-.71.77.27.77.71-.23.71-.77.71"/>
        <path class="cls-4" d="M194.12,46.83c0-.31-.25-.49-.69-.57l-.38-.06c-.24-.04-.45-.08-.45-.28,0-.18.18-.23.52-.23s.55.07.57.32h.4c-.03-.41-.44-.68-.98-.68s-.92.26-.92.62.33.53.7.59l.37.06c.3.05.44.11.44.28,0,.21-.28.23-.57.23-.39,0-.61-.06-.63-.33h-.4c.03.42.41.69,1.03.69s.99-.28.99-.64h0Z"/>
        <path class="cls-7" d="M115.31,39.36c-1.15-.64-2.08-1.61-2.79-2.9-.71-1.3-1.06-2.86-1.06-4.7s.33-3.28.98-4.57c.65-1.29,1.58-2.28,2.78-2.96,1.2-.69,2.57-1.03,4.13-1.03s2.96.36,4.15,1.09c1.2.73,2.01,1.94,2.44,3.66l-3.63,1.09c-.14-.62-.47-1.1-.98-1.45-.52-.35-1.15-.52-1.91-.52-1.16,0-2.08.4-2.77,1.21-.69.81-1.03,1.94-1.03,3.39,0,1.53.38,2.71,1.14,3.54.75.83,1.73,1.25,2.91,1.25.65,0,1.23-.12,1.75-.37.52-.25.83-.53.94-.86v-1.27h-3.56v-3.45h7.36v9.58h-2.66l-.46-1.3c-.4.46-.96.83-1.67,1.11-.71.28-1.5.42-2.36.42-1.31,0-2.54-.32-3.69-.96"/>
        <path class="cls-7" d="M128.09,27.36h4.03v2.08l.23.07c.26-.65.52-1.12.77-1.41.25-.29.57-.49.95-.59.38-.1.93-.15,1.65-.15h.56v3.59h-.6c-.89,0-1.58.09-2.05.28-.47.18-.81.48-1.02.88-.21.4-.37.97-.5,1.71v6.27h-4.03v-12.73Z"/>
        <path class="cls-7" d="M145.38,39.09v-.02l-.18-.09c-.69.89-1.81,1.34-3.36,1.34-1.29,0-2.36-.3-3.19-.9-.83-.6-1.25-1.49-1.25-2.66,0-1.06.31-1.91.93-2.55.62-.63,1.41-.99,2.38-1.06l4.07-.35c.25-.03.37-.15.37-.37v-.12c0-.48-.16-.89-.49-1.23-.32-.34-.84-.51-1.55-.51-.6,0-1.12.17-1.55.51-.43.34-.7.76-.81,1.25l-3.63-.69c.18-.97.59-1.8,1.21-2.48.62-.68,1.37-1.19,2.24-1.53.87-.34,1.79-.51,2.74-.51,1.73,0,3.13.35,4.21,1.06,1.08.71,1.62,1.82,1.62,3.33v8.56h-3.54l-.23-.99ZM141.61,37.35c.31.24.72.36,1.23.36.69,0,1.25-.24,1.68-.72.42-.48.64-1.03.64-1.67v-.32l-2.61.26c-.45.05-.79.17-1.03.36-.24.19-.36.44-.36.75,0,.42.15.74.46.98"/>
        <path class="cls-7" d="M159.73,31.22c-.37-.28-.84-.42-1.41-.42-.77,0-1.39.21-1.84.64-.46.42-.78,1.05-.98,1.89v6.76h-4.03v-12.73h3.8l.23,1.18.23.07c.33-.34.6-.6.82-.77.22-.18.56-.34,1.01-.49.45-.15,1.02-.22,1.71-.22,1.54,0,2.77.38,3.67,1.14.9.76,1.35,1.89,1.35,3.39v8.42h-4v-7.43c0-.68-.18-1.16-.55-1.43"/>
        <rect class="cls-7" x="167.64" y="23.49" width="1.44" height="16.59"/>
        <path class="cls-7" d="M174.93,39.57c-1.02-.5-1.82-1.25-2.42-2.24-.59-1-.89-2.19-.89-3.58s.3-2.63.89-3.62c.59-.99,1.4-1.74,2.42-2.24,1.02-.5,2.15-.75,3.4-.75s2.36.25,3.37.76c1.01.51,1.81,1.26,2.41,2.26.59.99.89,2.19.89,3.6s-.3,2.6-.89,3.59c-.59.99-1.4,1.73-2.41,2.24-1.01.5-2.13.75-3.37.75s-2.38-.25-3.4-.75M180.97,38.39c.77-.39,1.39-.98,1.84-1.76.45-.78.68-1.74.68-2.88,0-1.71-.48-3.02-1.45-3.92-.96-.9-2.2-1.35-3.71-1.35s-2.78.45-3.75,1.35c-.97.9-1.46,2.21-1.46,3.92s.49,2.99,1.46,3.89c.97.9,2.22,1.34,3.75,1.34.99,0,1.87-.2,2.64-.59"/>
        <path class="cls-7" d="M188.94,39.3c-.33-.52-.5-1.28-.5-2.27v-8.35h-2.13v-1.32h2.25l.23-2.73h1.09v2.73h3.08v1.32h-3.05v8.59c0,.49.09.86.28,1.1s.52.36,1.02.36h1.37v1.37h-1.67c-.97,0-1.62-.26-1.96-.79"/>
        <path class="cls-7" d="M197.54,39.54c-.94-.52-1.68-1.27-2.21-2.26-.53-.99-.8-2.17-.8-3.54s.27-2.54.81-3.54c.54-1,1.26-1.77,2.15-2.29.9-.53,1.88-.79,2.94-.79s2.05.24,2.92.71c.86.47,1.54,1.15,2.02,2.03.49.88.72,1.91.71,3.08l-.02,1.13h-10.07c.06,1.54.52,2.75,1.38,3.62.86.87,1.99,1.31,3.41,1.31,1.19,0,2.07-.24,2.64-.72.57-.48.99-1.08,1.27-1.81l1.09.56c-.29.97-.86,1.76-1.71,2.37-.85.61-1.95.91-3.31.91-1.2,0-2.27-.26-3.22-.77M204.71,32.8v-.21c0-1.2-.38-2.19-1.14-2.97-.76-.78-1.79-1.18-3.09-1.19-1.14,0-2.13.39-2.96,1.16-.83.77-1.33,1.84-1.48,3.22h8.68Z"/>
        <path class="cls-8" d="M104.75,29.95h0v-8.73c0-2.93-2.38-5.31-5.21-5.31l.02,18c0,3.49,1.56,6.61,3.99,8.67.02.01.03.03.05.04.05.04.09.07.14.11.04.03.07.06.11.09.03.02.05.04.08.06.06.04.11.08.17.13,0,0,.02.01.03.02.2.15.41.28.62.42v-13.49Z"/>
        <path class="cls-3" d="M272.31,44.18l-.3-.23-.31-.25c-2.08-1.75-3.49-4.1-4.1-6.69-.23.38-.5.74-.81,1.05h0c-1.05,1.07-2.44,1.67-3.92,1.67-1.48,0-2.87-.6-3.92-1.67h0c-1.03-1.04-1.66-2.5-1.66-4.1v-.36c.16-3.03,2.59-5.45,5.56-5.45.47,0,.93.07,1.39.18h0c1.22.3,2.26,1.02,3.02,1.98v-6.6c-.1-.04-.2-.09-.29-.13h0c-.28-.12-.56-.22-.85-.31-.27-.09-.54-.16-.82-.23-.02,0-.04-.01-.06-.01-.77-.18-1.57-.28-2.38-.28-5.88,0-10.67,4.89-10.79,10.94h.01v.27c0,3.49,1.56,6.62,3.99,8.66.02.01.03.03.05.04.04.04.09.08.14.11.04.03.07.06.11.09.03.02.05.04.08.06.05.04.11.08.17.13,0,0,.02.01.02.02.62.46,1.29.84,1.99,1.15h0c.16.08.33.15.49.21.05.02.1.04.15.06.29.11.59.21.89.29.01,0,.02,0,.03,0,.07.02.14.03.21.05.02,0,.04.01.07.02.06.01.11.03.17.04.03,0,.07.02.1.02.04,0,.09.02.14.03.05,0,.09.02.14.03.04,0,.07.01.1.02.05.01.11.02.17.03.02,0,.05,0,.07.01.07,0,.13.02.2.03.02,0,.03,0,.05,0,.07,0,.15.02.22.03,0,0,.02,0,.02,0,.08,0,.16.02.24.02h0c.09,0,.17.01.26.02h0c.09,0,.17,0,.26,0,.02,0,.04,0,.06,0,.07,0,.13,0,.2,0h.02c.07,0,.13,0,.2,0,.02,0,.04,0,.06,0,.09,0,.18,0,.26,0h0c.09,0,.17-.01.26-.02h0c.08,0,.16-.01.24-.02,0,0,.01,0,.02,0,.08,0,.15-.02.22-.03.01,0,.03,0,.05,0,.07,0,.13-.02.2-.03.03,0,.05,0,.07-.01.06,0,.11-.02.17-.03.04,0,.07-.01.1-.02.05,0,.09-.02.14-.03.05,0,.09-.02.14-.03.04,0,.07-.01.1-.02.06-.01.11-.02.17-.04.02,0,.05-.01.07-.02.07-.02.14-.03.2-.05.01,0,.02,0,.03,0,.3-.08.6-.18.89-.29.05-.02.1-.04.15-.06.17-.06.33-.12.49-.2h0c.47-.22.93-.47,1.37-.75-.26,2.94-2.65,5.25-5.56,5.25-1.48,0-2.88-.59-3.93-1.67l-3.68,3.84c2.04,2.08,4.74,3.23,7.6,3.23,5.29,0,9.7-3.96,10.62-9.16-.43-.24-.85-.5-1.26-.8"/>
        <path class="cls-3" d="M264.24-27.26v5.48c2.48.61,4.29,2.92,4.29,5.62V-7.15c0,3.18-2.5,5.77-5.58,5.77-1.48,0-2.88-.59-3.93-1.67l-3.68,3.84c2.04,2.09,4.74,3.23,7.6,3.23,5.96,0,10.81-5.01,10.81-11.17v-9.01c0-5.65-4.09-10.42-9.51-11.09"/>
        <path class="cls-2" d="M338.1,46.38c0,.44-.14.71-.6.71s-.6-.26-.6-.71v-1.04h-.42v1.04c0,.59.29,1.07,1.02,1.07s1.02-.48,1.02-1.07v-1.04h-.42v1.04Z"/>
        <path class="cls-2" d="M342.93,46.04c0-.24-.15-.69-.73-.69h-1.24v2.08h.42v-.66h.59l.47.66h.49l-.49-.69c.37-.09.49-.45.49-.71h0ZM342.23,46.43h-.86v-.72h.82c.29,0,.35.25.35.39s-.07.34-.3.34h0Z"/>
        <path class="cls-2" d="M346.82,46.29c.16-.08.22-.22.22-.4,0-.24-.09-.53-.73-.53h-.99v2.08h1.17c.44,0,.71-.18.71-.57,0-.3-.09-.5-.37-.58h0ZM346.3,45.71c.29,0,.35.09.35.23s-.08.21-.3.21h-.61v-.44h.57ZM346.48,47.09h-.75v-.59h.61c.36,0,.41.14.41.31s-.06.28-.28.28"/>
        <path class="cls-2" d="M350.18,45.35l-.76,2.09h.42l.17-.46h.97l.17.46h.42l-.76-2.09h-.62ZM350.13,46.63l.34-.92h.04l.34.92h-.71Z"/>
        <polygon class="cls-2" points="355.43 47.44 355.83 47.44 355.83 45.35 355.44 45.35 355.44 46.82 354.27 45.35 353.87 45.35 353.87 47.44 354.26 47.44 354.26 45.96 355.43 47.44"/>
        <rect class="cls-3" x="358.31" y="45.35" width=".42" height="2.08"/>
        <polygon class="cls-2" points="367.93 47.44 367.93 45.35 367.53 45.35 366.71 47.06 365.89 45.35 365.49 45.35 365.49 47.44 365.88 47.44 365.88 46.19 366.48 47.44 366.94 47.44 367.54 46.19 367.54 47.44 367.93 47.44"/>
        <path class="cls-2" d="M371.4,45.32c-.73,0-1.2.48-1.2,1.08s.47,1.07,1.2,1.07,1.2-.48,1.2-1.07-.47-1.08-1.2-1.08M371.4,47.1c-.54,0-.77-.26-.77-.71s.23-.71.77-.71.77.27.77.71-.23.71-.77.71"/>
        <path class="cls-2" d="M363.11,46.83c0-.31-.25-.49-.69-.57l-.38-.06c-.24-.04-.45-.08-.45-.28,0-.18.18-.23.52-.23s.55.07.57.32h.4c-.03-.41-.44-.68-.98-.68s-.92.26-.92.62.33.53.7.59l.37.06c.3.05.44.11.44.28,0,.21-.28.23-.57.23-.39,0-.61-.06-.63-.33h-.4c.03.42.41.69,1.03.69s.99-.28.99-.64h0Z"/>
        <path class="cls-3" d="M284.29,39.36c-1.15-.64-2.08-1.61-2.79-2.9-.71-1.3-1.06-2.86-1.06-4.7s.33-3.28.98-4.57c.65-1.29,1.58-2.28,2.78-2.96,1.2-.69,2.57-1.03,4.13-1.03s2.96.36,4.15,1.09c1.2.73,2.01,1.94,2.44,3.66l-3.63,1.09c-.14-.62-.47-1.1-.98-1.45-.52-.35-1.15-.52-1.91-.52-1.16,0-2.08.4-2.77,1.21-.69.81-1.03,1.94-1.03,3.39,0,1.53.38,2.71,1.13,3.54.76.83,1.73,1.25,2.92,1.25.65,0,1.23-.12,1.75-.37.52-.25.83-.53.94-.86v-1.27h-3.56v-3.45h7.36v9.58h-2.66l-.46-1.3c-.4.46-.96.83-1.67,1.11-.71.28-1.5.42-2.36.42-1.31,0-2.54-.32-3.69-.96"/>
        <path class="cls-3" d="M297.08,27.36h4.03v2.08l.23.07c.26-.65.52-1.12.77-1.41.25-.29.57-.49.95-.59.38-.1.93-.15,1.65-.15h.56v3.59h-.6c-.89,0-1.58.09-2.05.28-.47.18-.81.48-1.02.88-.21.4-.38.97-.5,1.71v6.27h-4.03v-12.73Z"/>
        <path class="cls-3" d="M314.37,39.09v-.02l-.18-.09c-.69.89-1.81,1.34-3.36,1.34-1.29,0-2.36-.3-3.19-.9-.83-.6-1.25-1.49-1.25-2.66,0-1.06.31-1.91.93-2.55.62-.63,1.41-.99,2.38-1.06l4.07-.35c.25-.03.37-.15.37-.37v-.12c0-.48-.16-.89-.49-1.23-.32-.34-.84-.51-1.55-.51-.6,0-1.12.17-1.55.51-.43.34-.7.76-.81,1.25l-3.63-.69c.18-.97.59-1.8,1.21-2.48.62-.68,1.37-1.19,2.24-1.53.87-.34,1.79-.51,2.74-.51,1.73,0,3.13.35,4.21,1.06,1.08.71,1.62,1.82,1.62,3.33v8.56h-3.54l-.23-.99ZM310.6,37.35c.31.24.72.36,1.23.36.69,0,1.25-.24,1.68-.72.42-.48.64-1.03.64-1.67v-.32l-2.61.26c-.45.05-.79.17-1.03.36-.24.19-.36.44-.36.75,0,.42.15.74.46.98"/>
        <path class="cls-3" d="M328.72,31.22c-.37-.28-.84-.42-1.41-.42-.77,0-1.39.21-1.84.64-.45.42-.78,1.05-.98,1.89v6.76h-4.03v-12.73h3.8l.23,1.18.23.07c.33-.34.6-.6.82-.77.22-.18.56-.34,1.01-.49.45-.15,1.02-.22,1.71-.22,1.54,0,2.77.38,3.67,1.14.9.76,1.35,1.89,1.35,3.39v8.42h-4v-7.43c0-.68-.18-1.16-.55-1.43"/>
        <rect class="cls-3" x="336.62" y="23.49" width="1.44" height="16.59"/>
        <path class="cls-3" d="M343.91,39.57c-1.02-.5-1.82-1.25-2.42-2.24-.59-1-.89-2.19-.89-3.58s.3-2.63.89-3.62c.59-.99,1.4-1.74,2.42-2.24,1.02-.5,2.15-.75,3.4-.75s2.36.25,3.37.76c1.01.51,1.81,1.26,2.41,2.26.59.99.89,2.19.89,3.6s-.3,2.6-.89,3.59c-.59.99-1.4,1.73-2.41,2.24-1.01.5-2.13.75-3.37.75s-2.38-.25-3.4-.75M349.95,38.39c.77-.39,1.39-.98,1.84-1.76.45-.78.68-1.74.68-2.88,0-1.71-.48-3.02-1.45-3.92-.96-.9-2.2-1.35-3.71-1.35s-2.78.45-3.75,1.35c-.97.9-1.46,2.21-1.46,3.92s.49,2.99,1.46,3.89c.97.9,2.22,1.34,3.75,1.34.99,0,1.87-.2,2.64-.59"/>
        <path class="cls-3" d="M357.92,39.3c-.33-.52-.5-1.28-.5-2.27v-8.35h-2.13v-1.32h2.25l.23-2.73h1.09v2.73h3.08v1.32h-3.05v8.59c0,.49.09.86.28,1.1s.52.36,1.02.36h1.37v1.37h-1.67c-.97,0-1.62-.26-1.96-.79"/>
        <path class="cls-3" d="M366.52,39.54c-.94-.52-1.68-1.27-2.21-2.26-.53-.99-.8-2.17-.8-3.54s.27-2.54.81-3.54c.54-1,1.26-1.77,2.15-2.29.9-.53,1.88-.79,2.94-.79s2.05.24,2.92.71c.86.47,1.54,1.15,2.02,2.03.49.88.72,1.91.71,3.08l-.02,1.13h-10.07c.06,1.54.52,2.75,1.38,3.62.86.87,1.99,1.31,3.41,1.31,1.19,0,2.07-.24,2.64-.72.57-.48.99-1.08,1.27-1.81l1.09.56c-.29.97-.86,1.76-1.71,2.37-.85.61-1.95.91-3.31.91-1.2,0-2.27-.26-3.22-.77M373.7,32.8v-.21c0-1.2-.38-2.19-1.14-2.97-.76-.78-1.79-1.18-3.09-1.19-1.14,0-2.13.39-2.96,1.16-.83.77-1.33,1.84-1.48,3.22h8.68Z"/>
        <path class="cls-3" d="M273.74,29.95h0v-8.73c0-2.93-2.38-5.31-5.21-5.31l.02,18c0,3.49,1.56,6.61,3.99,8.67.02.01.03.03.05.04.05.04.09.07.14.11.04.03.07.06.11.09.03.02.05.04.08.06.06.04.11.08.17.13,0,0,.02.01.03.02.2.15.41.28.62.42v-13.49Z"/>
      </g>
      <g class="cls-5">
        <path class="cls-3" d="M148.02,40.32v-.02c0-2.24,1.69-4.08,4.11-4.08,1.18,0,1.97.32,2.63.8.18.14.34.38.34.69,0,.48-.37.85-.86.85-.24,0-.39-.09-.52-.17-.48-.36-.98-.56-1.61-.56-1.33,0-2.29,1.1-2.29,2.45v.02c0,1.35.93,2.48,2.29,2.48.73,0,1.21-.22,1.71-.62.15-.12.33-.19.52-.19.44,0,.81.36.81.8,0,.27-.12.48-.29.62-.71.62-1.54.99-2.8.99-2.32,0-4.04-1.79-4.04-4.05"/>
        <path class="cls-3" d="M163,43.66c-.18-.12-.33-.32-.33-.59,0-.39.28-.68.67-.68.12,0,.24.03.34.09.57.36,1.15.54,1.63.54s.72-.18.72-.45v-.02c0-.37-.59-.48-1.25-.7-.84-.24-1.8-.64-1.8-1.81v-.02c0-1.23.99-1.91,2.21-1.91.63,0,1.28.16,1.87.46.26.12.4.34.4.64,0,.39-.29.68-.69.68-.1,0-.21-.02-.32-.08-.48-.24-.95-.38-1.31-.38-.42,0-.63.18-.63.42v.02c0,.32.57.52,1.23.72.84.27,1.82.69,1.82,1.79v.02c0,1.34-1,1.95-2.31,1.95-.75,0-1.54-.2-2.27-.69"/>
        <path class="cls-3" d="M170.65,43.55c-.04,1.07-1.65,1.06-1.67-.01v-3.86s0,0,0,0h-.01c-.39,0-.73-.28-.77-.67-.04-.43.3-.79.73-.79h.06v-.71c0-.5.41-.93.9-.9.46.02.81.39.81.85v.74s0,0,0,0h.71c.39,0,.73.28.77.67.04.43-.3.79-.73.79h-.75s0,0,0,0c0,.15-.04,2.53-.04,2.85,0,.02,0,1.01,0,1.03"/>
        <path class="cls-3" d="M176.06,44.37c-1.81,0-3.15-1.27-3.15-3.12v-.02c0-1.72,1.23-3.14,2.98-3.14,2.03,0,2.9,1.64,2.9,2.9,0,.49-.35.82-.8.82h-3.39c.17.78.71,1.18,1.47,1.18.48,0,.87-.15,1.22-.41.12-.09.24-.13.42-.13.39,0,.66.28.66.68,0,.23-.1.38-.23.51-.53.45-1.2.73-2.09.73M177.17,40.75c-.1-.77-.55-1.28-1.27-1.28s-1.17.51-1.31,1.28h2.58Z"/>
        <path class="cls-3" d="M180.18,36.81c0-.48.37-.85.86-.85s.86.37.86.85v6.64c0,.48-.37.85-.86.85s-.86-.37-.86-.85v-6.64Z"/>
        <path class="cls-3" d="M183.8,39.67h-.07c-.39,0-.71-.3-.71-.7s.32-.71.71-.71h.07v-.38c0-.65.16-1.14.48-1.46.32-.32.78-.47,1.38-.47.27,0,.51.01.7.04.3.04.59.29.59.69s-.3.71-.7.71h-.15c-.42,0-.62.21-.62.65v.24h.74c.39,0,.71.3.71.7s-.32.7-.71.7h-.72v3.78c0,.48-.37.85-.86.85s-.86-.37-.86-.85v-3.78Z"/>
        <path class="cls-3" d="M187.81,38.99c0-.48.37-.86.86-.86s.86.37.86.86v.27c.26-.59.65-1.13,1.16-1.13s.83.35.83.83c0,.45-.29.72-.64.8-.87.21-1.35.87-1.35,2.08v1.6c0,.48-.37.86-.86.86s-.86-.37-.86-.86v-4.46Z"/>
        <path class="cls-3" d="M198.9,38.99c0-.48.37-.86.86-.86s.86.37.86.86v.07c.39-.51.91-.97,1.77-.97,1.3,0,2.05.85,2.05,2.24v3.12c0,.48-.37.86-.86.86s-.86-.37-.86-.86v-2.58c0-.81-.37-1.23-1.04-1.23s-1.07.42-1.07,1.23v2.58c0,.48-.37.86-.86.86s-.86-.37-.86-.86v-4.46Z"/>
        <path class="cls-3" d="M205.62,41.25v-.02c0-1.72,1.32-3.14,3.16-3.14.91,0,1.55.24,2.06.67.12.09.27.28.27.59,0,.44-.34.77-.78.77-.23,0-.39-.09-.5-.17-.3-.24-.62-.38-1.07-.38-.86,0-1.46.74-1.46,1.64v.02c0,.93.6,1.67,1.53,1.67.45,0,.8-.16,1.12-.42.09-.08.25-.16.46-.16.4,0,.72.33.72.73,0,.23-.1.4-.25.54-.51.46-1.15.78-2.14.78-1.81,0-3.14-1.41-3.14-3.12"/>
        <path class="cls-3" d="M211.88,41.25v-.02c0-1.73,1.4-3.14,3.28-3.14s3.25,1.37,3.25,3.12v.02c0,1.73-1.4,3.14-3.28,3.14s-3.25-1.37-3.25-3.12M216.72,41.25v-.02c0-.89-.64-1.67-1.59-1.67s-1.57.74-1.57,1.64v.02c0,.89.64,1.67,1.59,1.67s1.57-.74,1.57-1.64"/>
        <path class="cls-3" d="M197.35,43.65c0,.37-.3.66-.66.66h-.04c-.36,0-.66-.3-.66-.66-.36.5-.88.75-1.54.75-1.39,0-2.47-1.15-2.47-2.96s1.07-2.96,2.47-2.96c.54,0,1.01.18,1.36.55.07.07.09.06.09-.04v-.22c-.01-.39.3-.7.69-.71.39,0,.71.31.71.71l.06,4.88ZM195.95,41.44c0-.99-.55-1.59-1.26-1.59s-1.27.6-1.27,1.59.55,1.59,1.27,1.59,1.26-.6,1.26-1.59"/>
        <path class="cls-3" d="M161.43,43.7c0,.37-.3.66-.66.66h-.04c-.36,0-.66-.3-.66-.66-.36.5-.88.75-1.54.75-1.39,0-2.47-1.15-2.47-2.96s1.07-2.96,2.47-2.96c.54,0,1.01.18,1.36.55.07.07.09.06.09-.04v-.22c-.01-.39.3-.7.69-.71.39,0,.71.31.71.71l.06,4.88ZM160.02,41.49c0-.99-.55-1.59-1.26-1.59s-1.27.6-1.27,1.59.55,1.59,1.27,1.59,1.26-.6,1.26-1.59"/>
        <polygon class="cls-3" points="133.64 53.66 133.64 54.25 130.17 54.25 130.17 49.47 133.54 49.47 133.54 50.07 130.85 50.07 130.85 51.53 133.25 51.53 133.25 52.11 130.85 52.11 130.85 53.66 133.64 53.66"/>
        <path class="cls-3" d="M140.65,52.17v2.08h-.65v-2.01c0-.71-.34-1.06-.93-1.06-.66,0-1.09.42-1.09,1.2v1.86h-.65v-2.01c0-.71-.34-1.06-.93-1.06-.65,0-1.08.42-1.08,1.2v1.86h-.65v-3.62h.63v.54c.26-.37.7-.57,1.25-.57s1.02.22,1.26.67c.27-.41.78-.67,1.39-.67.88,0,1.48.51,1.48,1.57"/>
        <path class="cls-3" d="M145.61,52.44c0,1.11-.77,1.85-1.83,1.85-.51,0-.96-.2-1.26-.59v1.87h-.66v-4.94h.63v.57c.29-.4.76-.61,1.29-.61,1.06,0,1.83.74,1.83,1.84M144.94,52.44c0-.76-.52-1.27-1.22-1.27s-1.21.5-1.21,1.27.52,1.28,1.21,1.28,1.22-.51,1.22-1.28"/>
        <path class="cls-3" d="M148.46,50.6v.63c-.05,0-.1,0-.15,0-.7,0-1.14.43-1.14,1.22v1.8h-.65v-3.62h.63v.61c.23-.42.68-.64,1.32-.64"/>
        <path class="cls-3" d="M152.48,52.66h-2.93c.08.63.59,1.06,1.31,1.06.42,0,.78-.14,1.04-.44l.36.42c-.33.38-.82.59-1.43.59-1.17,0-1.94-.77-1.94-1.85s.77-1.84,1.82-1.84,1.79.75,1.79,1.86c0,.06,0,.14-.01.2M149.55,52.19h2.32c-.07-.61-.53-1.04-1.16-1.04s-1.09.42-1.16,1.04"/>
        <path class="cls-3" d="M156.66,52.66h-2.93c.08.63.59,1.06,1.31,1.06.42,0,.78-.14,1.04-.44l.36.42c-.33.38-.82.59-1.43.59-1.17,0-1.94-.77-1.94-1.85s.77-1.84,1.82-1.84,1.79.75,1.79,1.86c0,.06,0,.14-.01.2M153.73,52.19h2.32c-.07-.61-.53-1.04-1.16-1.04s-1.09.42-1.16,1.04"/>
        <path class="cls-3" d="M161.01,52.17v2.08h-.65v-2.01c0-.71-.36-1.06-.98-1.06-.7,0-1.15.42-1.15,1.2v1.86h-.65v-3.62h.63v.55c.27-.37.73-.58,1.3-.58.88,0,1.5.51,1.5,1.57"/>
        <path class="cls-3" d="M165.66,49.19v5.06h-.63v-.57c-.29.41-.76.61-1.29.61-1.06,0-1.83-.74-1.83-1.85s.77-1.84,1.83-1.84c.51,0,.96.19,1.26.58v-1.99h.65ZM165.01,52.44c0-.77-.52-1.27-1.21-1.27s-1.22.5-1.22,1.27.53,1.28,1.22,1.28,1.21-.51,1.21-1.28"/>
        <path class="cls-3" d="M166.78,49.51c0-.24.19-.43.44-.43s.44.18.44.42c0,.25-.18.44-.44.44s-.44-.18-.44-.42M166.9,50.63h.65v3.62h-.65v-3.62Z"/>
        <path class="cls-3" d="M174.81,52.17v2.08h-.65v-2.01c0-.71-.34-1.06-.93-1.06-.65,0-1.08.42-1.08,1.2v1.86h-.65v-2.01c0-.71-.34-1.06-.93-1.06-.65,0-1.08.42-1.08,1.2v1.86h-.65v-3.62h.63v.54c.26-.37.7-.57,1.25-.57s1.02.22,1.26.67c.27-.41.78-.67,1.39-.67.88,0,1.48.51,1.48,1.57"/>
        <path class="cls-3" d="M179.29,52.66h-2.93c.08.63.59,1.06,1.31,1.06.42,0,.78-.14,1.04-.44l.36.42c-.33.38-.82.59-1.43.59-1.17,0-1.94-.77-1.94-1.85s.77-1.84,1.82-1.84,1.79.75,1.79,1.86c0,.06,0,.14-.01.2M176.36,52.19h2.32c-.07-.61-.53-1.04-1.16-1.04s-1.09.42-1.16,1.04"/>
        <path class="cls-3" d="M183.64,52.17v2.08h-.65v-2.01c0-.71-.35-1.06-.98-1.06-.7,0-1.15.42-1.15,1.2v1.86h-.65v-3.62h.63v.55c.27-.37.73-.58,1.3-.58.88,0,1.5.51,1.5,1.57"/>
        <path class="cls-3" d="M186.89,54.04c-.2.17-.5.25-.79.25-.73,0-1.15-.4-1.15-1.13v-1.99h-.61v-.54h.61v-.79h.65v.79h1.04v.54h-1.04v1.96c0,.39.2.61.57.61.19,0,.38-.06.51-.17l.2.47Z"/>
        <path class="cls-3" d="M187.23,52.44c0-1.08.8-1.84,1.88-1.84s1.88.76,1.88,1.84-.79,1.85-1.88,1.85-1.88-.77-1.88-1.85M190.33,52.44c0-.77-.52-1.27-1.21-1.27s-1.22.5-1.22,1.27.53,1.28,1.22,1.28,1.21-.51,1.21-1.28"/>
        <path class="cls-3" d="M191.44,53.87l.27-.52c.31.22.8.38,1.27.38.61,0,.86-.18.86-.49,0-.81-2.29-.11-2.29-1.55,0-.65.58-1.09,1.51-1.09.47,0,1,.12,1.32.33l-.28.52c-.33-.21-.69-.29-1.04-.29-.57,0-.85.21-.85.5,0,.85,2.29.16,2.29,1.56,0,.65-.6,1.07-1.56,1.07-.6,0-1.19-.18-1.49-.42"/>
        <path class="cls-3" d="M197.03,49.51c0-.24.19-.43.44-.43s.44.18.44.42c0,.25-.18.44-.44.44s-.44-.18-.44-.42M197.15,50.63h.65v3.62h-.65v-3.62Z"/>
        <path class="cls-3" d="M205.06,52.17v2.08h-.65v-2.01c0-.71-.34-1.06-.93-1.06-.65,0-1.08.42-1.08,1.2v1.86h-.65v-2.01c0-.71-.34-1.06-.93-1.06-.65,0-1.08.42-1.08,1.2v1.86h-.65v-3.62h.63v.54c.26-.37.7-.57,1.25-.57s1.02.22,1.26.67c.27-.41.78-.67,1.39-.67.88,0,1.48.51,1.48,1.57"/>
        <path class="cls-3" d="M205.95,52.44c0-1.08.8-1.84,1.88-1.84s1.88.76,1.88,1.84-.79,1.85-1.88,1.85-1.88-.77-1.88-1.85M209.05,52.44c0-.77-.52-1.27-1.21-1.27s-1.22.5-1.22,1.27.53,1.28,1.22,1.28,1.21-.51,1.21-1.28"/>
        <path class="cls-3" d="M214.36,52.44c0,1.1-.77,1.85-1.83,1.85-.53,0-1-.21-1.29-.61v.57h-.63v-5.06h.66v1.99c.3-.39.75-.58,1.26-.58,1.06,0,1.83.74,1.83,1.84M213.7,52.44c0-.77-.52-1.27-1.22-1.27s-1.21.5-1.21,1.27.53,1.28,1.21,1.28,1.22-.51,1.22-1.28"/>
        <path class="cls-3" d="M215.15,49.51c0-.24.19-.43.44-.43s.44.18.44.42c0,.25-.18.44-.44.44s-.44-.18-.44-.42M215.27,50.63h.65v3.62h-.65v-3.62Z"/>
        <rect class="cls-3" x="217.18" y="49.19" width=".65" height="5.06"/>
        <path class="cls-3" d="M218.96,49.51c0-.24.19-.43.44-.43s.44.18.44.42c0,.25-.18.44-.44.44s-.44-.18-.44-.42M219.08,50.63h.65v3.62h-.65v-3.62Z"/>
        <path class="cls-3" d="M223.85,52.07v2.18h-.62v-.48c-.22.33-.62.52-1.19.52-.82,0-1.34-.44-1.34-1.06,0-.58.38-1.06,1.45-1.06h1.04v-.13c0-.55-.32-.87-.97-.87-.43,0-.87.15-1.15.39l-.27-.49c.38-.3.91-.46,1.49-.46.99,0,1.55.48,1.55,1.47M223.19,53.14v-.5h-1.01c-.65,0-.83.25-.83.56,0,.36.3.59.8.59s.88-.23,1.04-.64M222.45,50.11h-.61l.93-.89h.83l-1.15.89Z"/>
        <path class="cls-3" d="M227.01,50.6v.63c-.05,0-.1,0-.15,0-.7,0-1.14.43-1.14,1.22v1.8h-.65v-3.62h.63v.61c.23-.42.68-.64,1.32-.64"/>
        <path class="cls-3" d="M227.7,49.51c0-.24.19-.43.44-.43s.44.18.44.42c0,.25-.18.44-.44.44s-.44-.18-.44-.42M227.81,50.63h.65v3.62h-.65v-3.62Z"/>
        <path class="cls-3" d="M229.38,52.44c0-1.08.8-1.84,1.88-1.84s1.88.76,1.88,1.84-.79,1.85-1.88,1.85-1.88-.77-1.88-1.85M232.48,52.44c0-.77-.52-1.27-1.21-1.27s-1.22.5-1.22,1.27.53,1.28,1.22,1.28,1.21-.51,1.21-1.28"/>
        <path class="cls-3" d="M233.59,53.87l.27-.52c.31.22.8.38,1.27.38.61,0,.86-.18.86-.49,0-.81-2.29-.11-2.29-1.55,0-.65.58-1.09,1.51-1.09.47,0,1,.12,1.32.33l-.28.52c-.33-.21-.69-.29-1.04-.29-.57,0-.85.21-.85.5,0,.85,2.29.16,2.29,1.56,0,.65-.6,1.07-1.56,1.07-.6,0-1.19-.18-1.49-.42"/>
        <path class="cls-3" d="M183.56,30.47c-.8-.35-1.63-.62-2.49-.76-5.89-1.01-9.6-6.64-9.45-12.93.15-6.55,5.5-11.89,12.05-12.05,11.51.46,13.35,10.69,13.56,13.38.03.34.33.59.66.55.31-.04.55-.28.59-.58.07-.57.18-1.48.19-2.04.17-8.57-6.73-15.72-15.3-15.84-8.68-.12-15.75,6.88-15.75,15.53,0,7.25,4.64,13.55,11.3,15.32,1.51.4,3.1.45,4.65.21.37-.06.44-.57.09-.72l-.1-.04Z"/>
        <path class="cls-3" d="M193.92,16.5s-.08-.1-.11-.16c-1.58-3.74-5.28-6.36-9.59-6.36-.98,0-1.93.14-2.83.39-3.59,1.64-6.09,5.27-6.09,9.48,0,.54.04,1.08.12,1.6-.02.32-.41.46-.63.22-.1-.11-.18-.25-.23-.39-.32-.95-.5-1.96-.54-3.01,0-.1,0-.21,0-.31,0-5.75,4.66-10.41,10.41-10.41,4,0,7.47,2.25,9.21,5.55.51.96.87,2,1.06,3.11-.03.39-.5.56-.78.29"/>
      </g>
      <g class="cls-6">
        <path class="cls-3" d="M36.93,36.9v-8.85c0-1.35-.82-2.17-2.37-2.17-.8,0-1.57.15-2.02.32v10.69h-3.39v-12.76c1.42-.57,3.14-.97,5.36-.97,3.99,0,5.83,1.65,5.83,4.54v9.19h-3.41Z"/>
        <path class="cls-3" d="M63.32,37.2c-4.34,0-6.7-2.57-6.7-6.93,0-4.14,2.17-6.93,6.28-6.93.72,0,1.49.12,1.92.27v-5.08h3.41v17.69c-.97.52-2.86.97-4.91.97M64.82,26.17c-.27-.12-.97-.25-1.57-.25-2.12,0-3.24,1.77-3.24,4.31,0,2.72,1.15,4.31,3.24,4.31.6,0,1.3-.12,1.57-.27v-8.1Z"/>
        <path class="cls-3" d="M77.29,37.2c-4.11,0-6.66-3.01-6.66-7.03s2.55-7,6.66-7,6.66,2.99,6.66,7-2.55,7.03-6.66,7.03M77.29,25.84c-2.1,0-3.42,1.62-3.42,4.31s1.32,4.29,3.42,4.29,3.42-1.59,3.42-4.29-1.32-4.31-3.42-4.31"/>
        <path class="cls-3" d="M54.49,29.97c-2.56.36-5.76.88-8.43,2.13.27,1.57,1.72,2.51,3.68,2.51,1.35,0,2.82-.42,3.76-.92l.97,2.54c-1.12.57-3.01.97-4.96.97-4.44,0-6.78-2.89-6.78-7.02s2.32-7,6.23-7,5.78,2.72,5.78,6.38c0,.19-.02.38-.26.41M48.89,25.84c-1.78.2-3.04,1.76-3.06,3.89,1.73-.68,3.92-1.31,6.17-1.55-.11-1.32-1.29-2.54-3.11-2.34"/>
        <path class="cls-3" d="M26.5,29.97c-2.56.36-5.76.88-8.43,2.13.27,1.57,1.72,2.51,3.68,2.51,1.35,0,2.82-.42,3.76-.92l.97,2.54c-1.12.57-3.01.97-4.96.97-4.44,0-6.78-2.89-6.78-7.02s2.32-7,6.23-7,5.78,2.72,5.78,6.38c0,.19-.02.38-.26.41M20.9,25.84c-1.78.2-3.04,1.76-3.06,3.89,1.73-.68,3.92-1.31,6.17-1.55-.11-1.32-1.29-2.54-3.11-2.34"/>
        <path class="cls-3" d="M5.48,37.2c-2.04,0-4.31-.18-5.48.11v-17.28c1.47-.73,3.36-1.46,5.43-1.46,4.58,0,6.73,2.07,6.73,4.93,0,2.07-1.37,3.42-2.82,3.81v.05c1.44.47,3.29,2.07,3.29,4.63,0,3.24-2.44,5.21-7.15,5.21M5.97,21.23c-.8,0-1.96.19-2.64.53v5.42c.46-.21,1.79-.48,2.85-.67,2.2-.4,2.63-1.78,2.63-2.68,0-1.62-.79-2.59-2.84-2.59M7.2,28.99c-1.84-.3-3.86.89-3.86.89v4.35c.5.18,1.37.3,2.12.3,2.47,0,3.71-1.07,3.71-2.94,0-1-.42-2.36-1.97-2.61"/>
        <path class="cls-3" d="M84.68,25.7c-.65,0-1.18-.52-1.18-1.18s.53-1.17,1.18-1.17,1.18.52,1.18,1.17-.53,1.18-1.18,1.18M84.68,23.54c-.54,0-.97.44-.97.98s.43.97.97.97.97-.44.97-.97-.43-.98-.97-.98M84.92,25.18l-.39-.58h-.03v.58h-.22v-1.3c.09-.05.22-.08.35-.08.32,0,.48.18.48.39s-.15.35-.35.38l.42.6h-.27ZM84.61,23.98s-.08,0-.11.02v.45h.08c.19,0,.3-.06.3-.25,0-.18-.15-.21-.27-.21"/>
        <path class="cls-3" d="M.89,48.33c-.27-.12-.48-.28-.63-.48-.15-.21-.24-.44-.26-.71h.76c.02.22.12.4.31.54.18.14.43.21.73.21.28,0,.5-.06.66-.18.16-.12.24-.28.24-.47s-.09-.34-.26-.43c-.17-.09-.44-.19-.79-.28-.33-.08-.59-.17-.8-.26-.21-.09-.38-.22-.53-.39-.15-.17-.22-.4-.22-.69,0-.23.07-.43.2-.62.13-.19.32-.34.57-.45.25-.11.53-.16.84-.16.49,0,.88.12,1.18.37.3.25.46.58.48,1.01h-.73c-.02-.23-.11-.41-.28-.55-.17-.14-.39-.21-.68-.21-.26,0-.47.06-.63.17-.16.11-.23.26-.23.44,0,.14.05.26.14.36.09.09.21.17.35.23.14.06.34.12.59.19.32.09.57.17.77.25.2.08.37.21.51.37.14.17.21.38.22.65,0,.24-.07.46-.2.65-.13.19-.32.34-.57.45-.24.11-.52.17-.84.17-.34,0-.64-.06-.91-.17"/>
        <path class="cls-3" d="M5.23,48.22c-.33-.19-.6-.45-.79-.8s-.28-.74-.28-1.2.1-.85.29-1.19c.2-.35.46-.61.8-.79.34-.18.71-.28,1.13-.28s.79.09,1.13.28c.34.18.6.45.8.79.2.34.29.74.29,1.2s-.1.85-.3,1.2-.47.61-.82.8c-.34.19-.72.28-1.14.28s-.79-.09-1.12-.28M7.09,47.67c.23-.12.42-.31.56-.55s.21-.55.21-.9-.07-.65-.21-.9c-.14-.25-.32-.43-.55-.55-.23-.12-.47-.18-.73-.18s-.51.06-.74.18c-.22.12-.4.3-.53.55-.13.25-.2.55-.2.9s.07.66.2.91c.13.25.31.43.53.55.22.12.46.18.72.18s.51-.06.74-.18"/>
        <rect class="cls-3" x="9.57" y="42.49" width=".73" height="5.94"/>
        <path class="cls-3" d="M15.44,44.03v4.4h-.73v-.65c-.14.23-.33.4-.58.53-.25.13-.52.19-.82.19-.34,0-.65-.07-.92-.21s-.49-.35-.65-.64c-.16-.28-.24-.63-.24-1.04v-2.58h.72v2.48c0,.43.11.77.33,1,.22.23.52.35.9.35s.7-.12.92-.36c.22-.24.34-.59.34-1.05v-2.42h.73Z"/>
        <path class="cls-3" d="M19.35,47.66c.21-.15.36-.36.44-.64h.79c-.11.42-.32.76-.63,1.02-.31.26-.71.42-1.18.45v.4c.32,0,.57.06.76.2.19.14.28.34.28.59s-.09.45-.27.6c-.18.15-.42.22-.71.22h-.92v-.47h.78c.18,0,.31-.03.39-.08.08-.05.12-.15.12-.27s-.04-.21-.12-.26c-.08-.05-.21-.08-.39-.08h-.4v-.86c-.37-.04-.7-.15-.98-.35-.28-.2-.5-.46-.66-.79-.16-.33-.24-.71-.24-1.13,0-.45.09-.85.27-1.19.18-.34.43-.6.76-.79.32-.19.69-.28,1.11-.28.54,0,.99.13,1.34.39.35.26.58.63.69,1.09h-.79c-.07-.27-.22-.48-.44-.63-.22-.16-.49-.23-.81-.23-.42,0-.75.14-1.01.43-.26.29-.39.69-.39,1.22s.13.94.39,1.23c.26.29.59.43,1.01.43.32,0,.59-.08.8-.23"/>
        <path class="cls-3" d="M22.35,48.22c-.33-.19-.6-.45-.79-.8s-.29-.74-.29-1.2.1-.85.29-1.19c.19-.35.46-.61.8-.79.34-.18.71-.28,1.13-.28s.79.09,1.13.28c.34.18.6.45.8.79.2.34.29.74.29,1.2s-.1.85-.3,1.2c-.2.35-.47.61-.81.8-.34.19-.72.28-1.14.28s-.79-.09-1.12-.28M24.21,47.67c.23-.12.42-.31.56-.55.14-.25.21-.55.21-.9s-.07-.65-.21-.9c-.14-.25-.32-.43-.55-.55-.22-.12-.47-.18-.73-.18s-.51.06-.73.18c-.22.12-.4.3-.53.55-.13.25-.2.55-.2.9s.07.66.2.91.31.43.52.55c.22.12.46.18.72.18s.51-.06.74-.18M22.6,42.87c.14-.15.32-.22.53-.22.1,0,.19.02.26.05.07.03.16.08.26.15.08.05.14.1.2.12.06.03.12.04.19.04.09,0,.17-.03.23-.09.07-.06.1-.14.12-.26h.42c-.03.27-.12.47-.26.62-.14.15-.32.22-.54.22-.1,0-.19-.02-.27-.05-.08-.04-.16-.09-.26-.16-.09-.05-.15-.09-.2-.12-.05-.03-.11-.04-.18-.04-.09,0-.17.03-.23.09-.06.06-.1.15-.12.27h-.43c.04-.27.13-.48.27-.63"/>
        <path class="cls-3" d="M30.68,46.5h-3.52c.03.43.18.77.45,1.02.27.24.6.36.98.36.32,0,.58-.07.79-.22.21-.15.36-.34.44-.59h.79c-.12.42-.35.77-.71,1.03-.35.26-.79.4-1.32.4-.42,0-.79-.09-1.12-.28-.33-.19-.59-.45-.77-.8-.19-.35-.28-.75-.28-1.2s.09-.85.27-1.2c.18-.34.44-.61.77-.79.33-.18.71-.28,1.14-.28s.79.09,1.11.27.57.43.74.75c.17.32.26.68.26,1.08,0,.14,0,.29-.02.44M29.76,45.19c-.12-.2-.29-.35-.5-.46-.21-.1-.45-.16-.7-.16-.37,0-.68.12-.94.35-.26.24-.41.56-.45.98h2.78c0-.28-.06-.52-.18-.72"/>
        <path class="cls-3" d="M32.31,48.33c-.27-.12-.48-.28-.63-.48-.15-.21-.24-.44-.26-.71h.76c.02.22.12.4.31.54.18.14.43.21.73.21.28,0,.5-.06.66-.18.16-.12.24-.28.24-.47s-.09-.34-.26-.43c-.17-.09-.44-.19-.79-.28-.33-.08-.59-.17-.8-.26-.21-.09-.38-.22-.53-.39-.15-.17-.22-.4-.22-.69,0-.23.07-.43.2-.62.13-.19.32-.34.57-.45.25-.11.53-.16.84-.16.49,0,.88.12,1.18.37.3.25.46.58.48,1.01h-.73c-.02-.23-.11-.41-.28-.55-.17-.14-.39-.21-.68-.21-.26,0-.47.06-.63.17-.16.11-.23.26-.23.44,0,.14.05.26.14.36.09.09.21.17.35.23.14.06.34.12.59.19.32.09.57.17.77.25.2.08.37.21.51.37.14.17.21.38.22.65,0,.24-.07.46-.2.65-.13.19-.32.34-.57.45-.24.11-.52.17-.84.17-.34,0-.64-.06-.91-.17"/>
        <path class="cls-3" d="M38.02,43.17c-.1-.1-.14-.21-.14-.35s.05-.26.14-.35.21-.14.35-.14.25.05.34.14c.09.1.14.21.14.35s-.05.26-.14.35c-.09.1-.21.14-.34.14s-.26-.05-.35-.14M38.73,48.43h-.73v-4.4h.73v4.4Z"/>
        <path class="cls-3" d="M46.17,44.16c.27.14.48.35.63.64.15.28.23.63.23,1.04v2.59h-.72v-2.49c0-.44-.11-.77-.33-1.01-.22-.23-.51-.35-.88-.35s-.68.12-.91.37c-.22.24-.34.6-.34,1.05v2.42h-.72v-2.49c0-.44-.11-.77-.32-1.01-.22-.23-.51-.35-.88-.35s-.68.12-.91.37c-.23.24-.34.6-.34,1.05v2.42h-.73v-4.4h.73v.63c.15-.23.34-.41.58-.53.24-.12.51-.18.81-.18.37,0,.7.08.98.25.28.17.49.41.63.73.12-.31.33-.55.61-.72.28-.17.6-.26.95-.26s.65.07.91.21"/>
        <path class="cls-3" d="M49.04,48.22c-.33-.19-.6-.45-.79-.8s-.28-.74-.28-1.2.1-.85.29-1.19c.2-.35.46-.61.8-.79.34-.18.71-.28,1.13-.28s.79.09,1.13.28c.34.18.6.45.8.79.2.34.29.74.29,1.2s-.1.85-.3,1.2-.47.61-.82.8c-.34.19-.72.28-1.14.28s-.79-.09-1.12-.28M50.89,47.67c.23-.12.42-.31.56-.55s.21-.55.21-.9-.07-.65-.21-.9c-.14-.25-.32-.43-.55-.55-.23-.12-.47-.18-.73-.18s-.51.06-.74.18c-.22.12-.4.3-.53.55-.13.25-.2.55-.2.9s.07.66.2.91c.13.25.31.43.52.55.22.12.46.18.72.18s.51-.06.74-.18"/>
        <path class="cls-3" d="M54.76,44.2c.29-.17.62-.25.99-.25.4,0,.75.09,1.07.28.32.19.56.45.75.79.18.34.27.73.27,1.18s-.09.84-.27,1.19c-.18.35-.43.62-.75.81-.32.19-.67.29-1.06.29s-.71-.08-1-.25c-.29-.16-.5-.38-.65-.63v.81h-.73v-5.94h.73v2.36c.15-.26.37-.48.66-.64M56.89,45.34c-.13-.25-.31-.43-.54-.56-.23-.13-.48-.19-.75-.19s-.51.07-.74.2c-.23.13-.41.32-.54.57-.14.25-.21.54-.21.86s.07.62.21.87c.14.25.32.44.54.57.23.13.48.2.74.2s.52-.06.75-.2c.23-.13.41-.32.54-.57.13-.25.2-.54.2-.88s-.07-.62-.2-.87"/>
        <path class="cls-3" d="M58.82,43.17c-.1-.1-.14-.21-.14-.35s.05-.26.14-.35.21-.14.35-.14.25.05.34.14c.09.1.14.21.14.35s-.05.26-.14.35c-.09.1-.21.14-.34.14s-.26-.05-.35-.14M59.53,48.43h-.73v-4.4h.73v4.4Z"/>
        <rect class="cls-3" x="60.78" y="42.49" width=".73" height="5.94"/>
        <path class="cls-3" d="M62.77,43.17c-.1-.1-.14-.21-.14-.35s.05-.26.14-.35c.1-.1.21-.14.35-.14s.25.05.34.14c.09.1.14.21.14.35s-.05.26-.14.35c-.09.1-.21.14-.34.14s-.26-.05-.35-.14M63.48,48.43h-.73v-4.4h.73v4.4Z"/>
        <path class="cls-3" d="M64.72,45.03c.18-.34.43-.6.75-.79.32-.19.67-.28,1.06-.28s.72.08,1,.25c.28.17.49.37.63.63v-.8h.74v4.4h-.74v-.82c-.15.26-.36.47-.65.64-.29.17-.62.25-1,.25s-.74-.1-1.06-.29c-.32-.19-.57-.46-.75-.81-.18-.35-.27-.74-.27-1.19s.09-.84.27-1.18M67.97,45.35c-.13-.25-.31-.43-.54-.56-.23-.13-.48-.2-.75-.2s-.52.06-.75.19c-.22.13-.4.32-.54.56-.13.25-.2.54-.2.87s.07.63.2.88c.13.25.31.44.54.57.22.13.47.2.75.2s.52-.07.75-.2c.23-.13.41-.32.54-.57s.2-.54.2-.87-.07-.62-.2-.87M67.6,42.78l-1.71.91v-.55l1.71-1v.63Z"/>
        <path class="cls-3" d="M71.43,44.16c.24-.14.53-.21.87-.21v.76h-.19c-.82,0-1.23.44-1.23,1.33v2.39h-.73v-4.4h.73v.71c.13-.25.31-.45.55-.59"/>
        <path class="cls-3" d="M73.17,43.17c-.1-.1-.14-.21-.14-.35s.05-.26.14-.35c.1-.1.21-.14.35-.14s.25.05.34.14c.09.1.14.21.14.35s-.05.26-.14.35c-.09.1-.21.14-.34.14s-.26-.05-.35-.14M73.87,48.43h-.73v-4.4h.73v4.4Z"/>
        <path class="cls-3" d="M75.12,45.03c.18-.34.43-.6.75-.79.32-.19.67-.28,1.06-.28s.72.08,1,.25c.28.17.49.38.63.63v-.8h.74v4.4h-.74v-.82c-.15.26-.36.47-.65.64-.29.17-.62.25-1,.25s-.74-.1-1.06-.29c-.32-.19-.57-.46-.75-.81-.18-.35-.27-.74-.27-1.19s.09-.84.27-1.18M78.37,45.35c-.13-.25-.31-.43-.54-.57-.23-.13-.48-.2-.75-.2s-.52.06-.75.19c-.22.13-.4.32-.54.56-.13.25-.2.53-.2.87s.07.63.2.88c.13.25.31.44.54.57.23.13.47.2.75.2s.52-.07.75-.2c.23-.13.41-.32.54-.57.13-.25.2-.54.2-.87s-.07-.62-.2-.87"/>
        <path class="cls-3" d="M81.19,48.33c-.27-.12-.48-.28-.63-.48-.15-.21-.24-.44-.26-.71h.76c.02.22.12.4.31.54.18.14.43.21.73.21.28,0,.5-.06.66-.18.16-.12.24-.28.24-.47s-.09-.34-.26-.43c-.17-.09-.44-.19-.79-.28-.33-.08-.59-.17-.8-.26-.21-.09-.38-.22-.53-.39-.15-.17-.22-.4-.22-.69,0-.23.07-.43.2-.62.13-.19.32-.34.57-.45.25-.11.53-.16.84-.16.49,0,.88.12,1.18.37.3.25.46.58.48,1.01h-.73c-.02-.23-.11-.41-.28-.55-.17-.14-.39-.21-.68-.21-.26,0-.47.06-.63.17-.16.11-.23.26-.23.44,0,.14.05.26.14.36.09.09.21.17.35.23.14.06.34.12.59.19.32.09.57.17.77.25.2.08.37.21.51.37.14.17.21.38.22.65,0,.24-.07.46-.2.65-.13.19-.32.34-.57.45-.24.11-.52.17-.84.17-.34,0-.64-.06-.91-.17"/>
      </g>
    </g>
  </g>
</svg>