<?xml version="1.0" encoding="UTF-8"?>
<svg id="Layer_2" data-name="Layer 2" xmlns="http://www.w3.org/2000/svg" viewBox="0 0 87.77 70.42">
  <defs>
    <style>
      .cls-1 {
        fill: #8c8c8c;
      }
    </style>
  </defs>
  <g id="Layer_1-2" data-name="Layer 1">
    <g>
      <path class="cls-1" d="M4.9,41.72c-.48,0-.93,.09-1.33,.26-.41,.17-.76,.42-1.05,.74-.3,.32-.53,.71-.69,1.16s-.25,.96-.25,1.52,.09,1.07,.27,1.53c.18,.45,.42,.84,.74,1.16,.31,.32,.68,.56,1.1,.73,.42,.17,.87,.26,1.36,.26,.35,0,.67-.05,.95-.14,.28-.09,.54-.23,.76-.41v-2.81h-1.51v-.48h2.86v3.52c-.23,.12-.47,.24-.71,.33s-.49,.18-.77,.24-.58,.11-.91,.15c-.33,.03-.7,.05-1.12,.05-.44,0-.86-.05-1.26-.15-.4-.1-.77-.24-1.11-.42-.34-.18-.65-.4-.92-.65s-.51-.53-.7-.84-.34-.63-.44-.98-.16-.72-.16-1.09,.05-.74,.15-1.1c.1-.36,.24-.69,.42-1.01,.19-.32,.41-.61,.68-.87,.26-.26,.56-.49,.9-.68,.33-.19,.7-.34,1.09-.44,.39-.1,.81-.16,1.25-.16s.81,.06,1.17,.17c.36,.12,.69,.27,.98,.46,.3,.19,.56,.41,.79,.66,.23,.25,.43,.51,.59,.78l-.58,.39c-.34-.65-.71-1.12-1.12-1.42-.41-.3-.88-.45-1.42-.45Z"/>
      <path class="cls-1" d="M10.01,41.33h2.77c.48,0,.9,.05,1.26,.15,.36,.1,.66,.25,.9,.43,.24,.19,.42,.41,.54,.66,.12,.26,.18,.53,.18,.84,0,.25-.05,.48-.14,.7-.09,.22-.23,.41-.4,.59s-.38,.33-.62,.45c-.24,.13-.51,.23-.8,.3l2.91,3.89h-1.56l-2.78-3.76h-.94v3.76h-1.34v-8.01Zm1.34,3.84h.78c.3,0,.58-.04,.83-.12,.26-.08,.48-.19,.66-.34,.19-.15,.33-.33,.44-.53s.16-.45,.16-.71c0-.24-.04-.46-.12-.66-.08-.2-.2-.37-.35-.52-.15-.14-.33-.25-.54-.34s-.43-.12-.68-.12h-1.18v3.34Z"/>
      <path class="cls-1" d="M20.73,41.15l3.76,8.19h-1.37l-1.22-2.67h-3.43l-1.26,2.67h-.68l3.85-8.19h.34Zm-2.02,5h2.95l-1.45-3.17-1.5,3.17Z"/>
      <path class="cls-1" d="M25.47,41.33h.75l5.24,5.86h.06v-5.86h.59v8.2h-.31l-5.67-6.51h-.05v6.33h-.61v-8.01Z"/>
      <path class="cls-1" d="M37.8,41.33h2.77c.48,0,.9,.05,1.26,.15,.36,.1,.66,.25,.9,.43,.24,.19,.42,.41,.54,.66,.12,.26,.18,.53,.18,.84,0,.25-.05,.48-.14,.7-.09,.22-.23,.41-.4,.59s-.38,.33-.62,.45c-.24,.13-.51,.23-.8,.3l2.91,3.89h-1.56l-2.78-3.76h-.94v3.76h-1.34v-8.01Zm1.34,3.84h.78c.3,0,.58-.04,.83-.12,.26-.08,.48-.19,.66-.34,.19-.15,.33-.33,.44-.53s.16-.45,.16-.71c0-.24-.04-.46-.12-.66-.08-.2-.2-.37-.35-.52-.15-.14-.33-.25-.54-.34s-.43-.12-.68-.12h-1.18v3.34Z"/>
      <path class="cls-1" d="M50.95,41.33v.52h-4.21v2.86h2.82v.52h-2.82v3.59h4.21v.52h-5.56v-8.01h5.56Z"/>
      <path class="cls-1" d="M55.02,49.02c.2,0,.39-.03,.58-.08,.19-.05,.37-.13,.52-.24,.15-.11,.27-.24,.37-.39,.09-.16,.14-.34,.14-.54,0-.25-.06-.46-.19-.66-.13-.19-.29-.37-.5-.53-.2-.16-.44-.31-.7-.45-.26-.14-.53-.28-.8-.42-.27-.14-.54-.29-.8-.44-.26-.16-.5-.33-.7-.52-.21-.19-.37-.4-.5-.64-.13-.24-.19-.51-.19-.81s.06-.59,.17-.85c.11-.26,.28-.49,.5-.68s.49-.34,.82-.45c.32-.11,.69-.16,1.11-.16,.38,0,.71,.04,1.01,.12,.3,.08,.56,.2,.78,.36,.23,.16,.42,.35,.57,.58,.16,.23,.28,.5,.38,.8l-.69,.31c-.08-.25-.18-.47-.31-.67-.12-.2-.27-.38-.45-.52s-.37-.26-.6-.34c-.23-.08-.48-.12-.77-.12-.25,0-.47,.04-.66,.11-.19,.07-.35,.16-.47,.28-.13,.11-.22,.24-.28,.39s-.09,.29-.09,.44c0,.21,.06,.4,.19,.58s.3,.34,.51,.5c.21,.16,.46,.31,.73,.45s.55,.29,.83,.44c.28,.15,.56,.3,.83,.47,.27,.16,.51,.34,.73,.53s.38,.4,.51,.63c.13,.23,.19,.48,.19,.76,0,.32-.06,.62-.18,.9-.12,.28-.3,.52-.54,.73-.24,.21-.54,.37-.9,.49-.36,.12-.77,.18-1.25,.18-.39,0-.73-.04-1.03-.13-.3-.08-.57-.21-.8-.37-.23-.16-.43-.36-.59-.59-.16-.23-.3-.5-.4-.79l.72-.3c.08,.26,.2,.5,.34,.7s.31,.38,.5,.52c.19,.14,.4,.25,.63,.33s.48,.11,.74,.11Z"/>
      <path class="cls-1" d="M65.1,41.33v.52h-4.21v2.86h2.82v.52h-2.82v3.59h4.21v.52h-5.56v-8.01h5.56Z"/>
      <path class="cls-1" d="M66.55,41.33h2.77c.48,0,.9,.05,1.26,.15,.36,.1,.66,.25,.9,.43,.24,.19,.42,.41,.54,.66,.12,.26,.18,.53,.18,.84,0,.25-.05,.48-.14,.7-.09,.22-.23,.41-.4,.59s-.38,.33-.62,.45-.51,.23-.79,.3l2.91,3.89h-1.56l-2.78-3.76h-.94v3.76h-1.34v-8.01Zm1.34,3.84h.78c.3,0,.58-.04,.83-.12s.48-.19,.66-.34,.33-.33,.44-.53,.16-.45,.16-.71c0-.24-.04-.46-.12-.66-.08-.2-.2-.37-.35-.52-.15-.14-.33-.25-.54-.34s-.43-.12-.68-.12h-1.18v3.34Z"/>
      <path class="cls-1" d="M74.5,41.33l3.02,6.38,2.8-6.38h.64l-3.63,8.2h-.35l-3.9-8.2h1.42Z"/>
      <path class="cls-1" d="M84.01,41.15l3.76,8.19h-1.37l-1.22-2.67h-3.43l-1.26,2.67h-.67l3.85-8.19h.34Zm-2.02,5h2.95l-1.45-3.17-1.5,3.17Z"/>
    </g>
    <g>
      <path class="cls-1" d="M79.33,59.5c-1.38,.87-2.38,1.52-4.12,1.71-.58,.07-1.13,.03-1.48-.13,0-.06,.22-.32,.22-.35,.03-.03,.06-.1,.06-.13,.23-.42,.39-.87,.39-1.35s-.29-.77-.68-.97c-.93-.62-3.17,.84-3.25,.87-1.09,.58-4.34,2-5.47,2.61-.13-.48-1.48-2.74-1-3.42t.03-.03c.51-.45,.51,.26,.87,.32,.35,.06,1.13-.77,.9-1.23-.51-1.19-2.28-.03-2.96,.77-.18,.38-.29,.7-.3,1.03-.02,.01-.03,.02-.05,.03-.93,.61-1.99,1.16-3.05,1.71-.77,.42-1.58,.84-2.41,1.13-.61,.26-1.29,.48-1.99,.48-.84,0-1.35-.71-1.25-1.32,.19-1.06,.96-2.19,1.54-3.22,.06-.13,.13-.26,0-.39-.13-.13-.29-.03-.42,0-.35,.16-.77,.39-.96,.68-.19,.31-.4,.64-.6,1-2.21,1.38-5.64,1.56-6.86-.03,.29-.32,.58-.77,.71-1.23,.03-.16-.1-.29-.26-.26-.1,0-.16,.06-.26,.1-.8,.32-1.35,.94-1.83,1.64,0,.03-.03,.1-.06,.13-.9,.81-3.02,2.97-3.05,2.39,.19-.97,.45-2.39,.77-3.55,.03-.13,.03-.26-.1-.35-.1-.07-.22-.03-.32,0-.48,.23-.8,.58-.93,1.06-.02,.07-.04,.15-.06,.23-.26,.19-.45,.42-.71,.61l-1.51,1.23c-.77,.55-1.61,.97-2.54,1.22-.35,.1-.74,.16-1.16,.1-.23-.03-.42-.13-.58-.36-.19-.19-.19-.42-.19-.58s.03-.23,.06-.42c1.06-.55,4.08-2.61,2.35-3.61-.29-.19-.77-.26-1.03-.1-.8,.38-1.41,1.03-1.85,1.8-.11,.07-.22,.14-.3,.2-1.38,1.13-4.28,2.93-4.5,2.26-.22-.94,.71-2.1,.55-3-.06-.55-.77-.55-1.19-.32-.8,.48-1.45,1.16-2.06,2-.06,.1-.1,.19-.22,.23,.13-.29,.16-.52,.26-.77,.48-1.06,.32-2.06-.64-1.71-.48,.16-1.41,.58-1.9,1.13-.29,.1-.64,1.42,.1,1,.51-.29,.68-.52,1.22-.81,.64-.29-1,3.19-1.22,3.9-.19,.58-.51,1.13-.35,1.77,.32,.68,1.35-.19,1.41-.74,.16-1.23,2.41-4.03,2.89-4.61,.03-.03,.1-.1,.13-.13,.03,0,.03,.1,0,.23-.13,.55-.87,2.9,.23,3.16,1.25,.31,3.56-1.17,4.97-2.23-.16,.59-.25,1.19-.27,1.78,.03,.58,.26,1.03,.74,1.26,.29,.1,.61,.16,.93,.13,1.29-.1,2.44-.61,3.57-1.32,.58-.39,1.16-.81,1.74-1.26,.24-.17,.47-.36,.69-.55-.19,.76-.34,1.55-.3,2.17,.06,.39,.29,.61,.67,.52,.35-.06,.68-.19,.93-.42,.61-.45,1.19-.97,1.77-1.45,.42-.35,1.58-1.32,1.99-1.74,.78,1.39,4.14,2.04,7.05,.47-.25,.64-.41,1.29-.33,1.92,.1,.61,.45,1.03,1.13,1.26,.19,.07,.45,.1,.68,.13,.26-.03,.48-.06,.71-.1,1.13-.19,2.15-.61,3.15-1.1,.93-.48,1.83-.97,2.73-1.48,.64-.32,1.25-.71,1.83-1.06,0,0,.01,0,.02-.01,.29,.83,.91,2.32,.91,2.63,.06,.1,.06,.19-.03,.23-.32,.35-.77,.68-1,.97-.61,.68-1.16,1.48-1.45,2.35-.1,.58,.06,1.1,.71,1,.42-.03,1-.26,1.48-.64,.84-.58,1.41-1.39,1.74-2.32,.23-.52,.23-1,.26-1.51,0-.06-.06-.13-.03-.16,.68-.42,3.54-1.71,4.18-2.06,0,0,0,0,0,0-.26,.38-.49,.77-.68,1.2-.26,.55-.29,1.13-.13,1.71,.1,.35,.29,.61,.61,.74,.22,.06,.48,.1,.74,.06,.58-.06,1.06-.35,1.51-.68,.48-.32,.9-.77,1.29-1.22,.1-.07,.16-.19,.29-.16,1.7,.35,5.92-.45,7.07-2.68,.39-.74-.68-.06-.87,.06Zm-43.82-.65c.23-.13,.5-.07,.57,.15,.06,.06-1.05,1.05-1.5,1.63,.06-.26,.16-.48,.23-.64,.16-.39,.32-.91,.71-1.14Zm27.78,6.71c-.13,.16-.39,.26-.55,.19-.23-.03-.26-.19-.23-.39,.32-.64,.74-1.16,1.32-1.68-.06,.71-.16,1.29-.55,1.87Zm9.55-5.77c-.51,.07-.95,.3-1.09,.77-.21,.67,.32,1.1,.45,1.22-.29,.29-.55,.64-.9,.84-.26,.13-.91,.29-1.24-.18-.22-.42-.15-.92,.08-1.33,.83-1.43,2.51-2.4,2.7-1.35v.03Z"/>
      <path class="cls-1" d="M28.82,54.14c.74-.13,1.48-.26,2.15-.45,.55-.13,.9-.48,1.09-1.03,.06-.1,.03-.29-.03-.35-.03-.06-.19-.1-.32-.06-.9,.16-1.8,.35-2.67,.55-1.99,.42-3.99,.81-6.01,1.23-.29,.03-.58,.1-.9,.13,0-.1,.03-.16,.06-.23,.06-.42,.23-.84,.26-1.22,.06-.29-.16-.42-.42-.35-.19,.03-.39,.1-.51,.29-.61,.55-1.13,1.1-1.67,1.64-.19,.19-.32,.39-.51,.42-.64,.13-1.35,.23-2.03,.35-.93,.16-1.83,.29-2.77,.45-.87,.13-1.74,.29-2.64,.39-.29,.03-.55,.1-.77,.26-.1,.1-.23,.19-.32,.29-.35,.23-.61,.48-.74,.87-.06,.26,.03,.42,.29,.42,.35,0,.64-.13,1,0,.45,.1,.93,.1,1.38,.26,.45,.16,.84,.03,1.16-.29,.16-.23,.29-.48,.42-.74,.03-.06,.1-.1,.13-.13,.42-.06,.8-.13,1.19-.19,1.22-.19,2.44-.42,3.63-.61,.39-.06,.77-.16,1.19-.23-.06,.26-.16,.48-.23,.74-.68,2.51-1.75,7.32-2.17,9.61-.19,1.19-.39,2.42-.58,3.61-.03,.23-.1,.48,.1,.61,.19,.13,.42,0,.58-.13,.45-.32,.71-.68,.77-1.26,.06-.64,1.14-8.21,2.74-13.22,.03-.1,.1-.19,.19-.23,1.45-.29,2.93-.61,4.44-.87,.84-.16,1.7-.35,2.51-.52Z"/>
    </g>
    <path class="cls-1" d="M43.51,36.02c-.43,0-.87-.02-1.31-.07-5.64-.61-9.89-5.23-9.97-10.78l1.07,.04c.12,4.28,2.89,7.91,7.09,9.26,1,.32,2.04,.49,3.09,.49,2.24,0,4.37-.73,6.17-2.1,2.52-1.92,3.93-4.64,3.99-7.66,.24-.02,.47-.02,.7-.02,.12,0,.23,0,.36,0-.09,6.09-4.98,10.84-11.2,10.84h0Zm-.04-3.31c-4.14,0-7.57-3.35-7.65-7.47-.03-1.51-.98-2.53-2.38-2.53h-1.2s-.01-1.03-.01-1.03c.12,0,.23,0,.35,0,.2,0,.4-.01,.61-.01s.4,0,.62,.02c1.71,.12,3.05,1.54,3.05,3.24,.01,3.62,2.82,6.57,6.38,6.72,.09,0,.17,0,.26,0,3.53,0,6.47-2.83,6.54-6.3,.04-1.77,1.08-3.67,3.29-3.67h1.4s.01,1.01,.01,1.01l-1.41,.05c-1.19,.05-2.15,1.02-2.15,2.17,0,4.28-3.32,7.71-7.54,7.8h-.17Zm-.06-3.57c-2.2-.03-4-1.81-4.01-3.96-.02-3.38-2.65-6.03-6-6.03l-1.16,.02v-1.07s.08,0,.08,0c.2,0,.39,0,.58,0,.18,0,.36,0,.54,0,.38,0,.69,.02,.98,.06,3.38,.47,5.96,3.35,6,6.7,.02,1.75,1.18,3.07,2.81,3.22,.08,0,.17,.01,.25,.01,1.38,0,2.92-1.05,2.98-2.74,.08-2.08,.65-3.64,1.81-4.91,1.24-1.36,2.83-2.18,4.49-2.3,.33-.03,.65-.03,.97-.03h1v1.07c-.3-.01-.59-.02-.88-.02-.82,0-1.45,.08-2.03,.25-2.6,.77-4.24,3.04-4.29,5.93-.04,2.11-1.86,3.82-4.07,3.82h-.06Zm-.47-4.31c-.02-2.37-.97-4.63-2.7-6.4-1.76-1.8-4.14-2.84-6.53-2.86h-1.46s-.01-1.06-.01-1.06h.1c.32,0,.63-.02,.93-.02,.47,0,.87,.02,1.25,.06,2.86,.29,5.38,1.66,7.11,3.84,.49,.62,.91,1.27,1.3,2.05l.55,1.07,.73-1.37c.25-.47,.54-.99,.95-1.52,1.72-2.27,4.35-3.75,7.21-4.06,.49-.05,.94-.06,1.32-.06h1.04s0,1.05,0,1.05c-.12,0-.23,0-.35,0-.52,0-.99,.01-1.49,.04-4.89,.3-8.76,4.34-8.89,9.23h-1.08Zm3.53-13.06c.2-1.18-.26-2.32-1.24-3.02-.52-.37-1.13-.57-1.77-.57s-1.19,.18-1.69,.53c-1.01,.7-1.5,1.88-1.28,3.06h-8.23c-.04-.31-.05-.64,0-1.07h7.03s.05-.09,.05-.09c.17-.29,.26-.63,.25-.93v-.1s-6.08-3.52-6.08-3.52c.16-.33,.32-.61,.53-.92l6.17,3.55,.77-.74-3.56-6.19,.92-.54,3.57,6.18,1.03-.28V0s1.09,0,1.09,0V7.08s1.03,.34,1.03,.34l3.58-6.21c.32,.16,.61,.34,.92,.55l-3.52,6.09,.06,.09c.18,.26,.34,.45,.58,.66l.09,.08,6.17-3.55c.19,.28,.35,.57,.53,.92l-6.09,3.52v.1c-.01,.27,.05,.56,.19,.91l.04,.11h7.11s-.01,1.07-.01,1.07h-8.24Z"/>
  </g>
</svg>